<svg xmlns="http://www.w3.org/2000/svg" viewBox="0 0 512 512"><path fill="#39468a" d="M504.5 482h-22.5v-444.5a7.5 7.5 0 0 0-7.5-7.5h-83a7.5 7.5 0 0 0-7.5 7.5v422a7.5 7.5 0 0 0 15 0v-414.5h68v437h-98v-331.5a7.5 7.5 0 0 0-7.5-7.5h-83a7.5 7.5 0 0 0-7.5 7.5v309a7.5 7.5 0 0 0 15 0v-301.5h68v324h-98v-218.5a7.5 7.5 0 0 0-7.5-7.5h-83a7.5 7.5 0 0 0-7.5 7.5v196a7.5 7.5 0 0 0 15 0v-188.5h68v211h-98v-105.5a7.5 7.5 0 0 0-7.5-7.5h-83a7.5 7.5 0 0 0-7.5 7.5v83a7.5 7.5 0 0 0 15 0v-75.5h68v98h-98v-474.5a7.5 7.5 0 0 0-15 0v22.5h-7.5a7.5 7.5 0 0 0 0 15h7.5v98h-7.5a7.5 7.5 0 0 0 0 15h7.5v98h-7.5a7.5 7.5 0 0 0 0 15h7.5v98h-7.5a7.5 7.5 0 0 0 0 15h7.5v98h-7.5a7.5 7.5 0 0 0 0 15h7.5v7.5a7.5 7.5 0 0 0 15 0v-7.5h98v7.5a7.5 7.5 0 0 0 15 0v-7.5h98v7.5a7.5 7.5 0 0 0 15 0v-7.5h98v7.5a7.5 7.5 0 0 0 15 0v-7.5h98v7.5a7.5 7.5 0 0 0 15 0v-7.5h22.5a7.5 7.5 0 0 0 0-15z"/></svg>