<svg xmlns="http://www.w3.org/2000/svg" viewBox="0 0 512 512"><path fill="#39468a" d="M159.978 220.073c0 27.829 10.137 56.011 27.811 77.321 18.586 22.409 42.849 34.751 68.318 34.751 25.466 0 49.699-12.335 68.237-34.732 17.616-21.284 27.719-49.455 27.719-77.291v-24.518c7.124-30.679 8.618-57.229 8.607-74.163-.015-21.864-2.393-36.97-4.613-43.816-1.179-3.637-4.716-5.846-8.372-5.492a8.038 8.038 0 0 0-1.85.041c-14.879 2.126-33.132-1.54-52.458-5.421-31.312-6.287-66.688-13.381-93.744 5.377a8.02 8.02 0 0 0-.731-.037c-15.185 0-28.667 6.068-37.963 17.086-8.587 10.178-13.316 24.181-13.316 39.43 0 24.975 10.624 71.13 12.354 78.481v12.983zm152.04 67.139c-15.442 18.658-35.299 28.934-55.911 28.934-20.623 0-40.512-10.287-56.003-28.965-15.333-18.487-24.126-42.947-24.126-67.107v-9.595c0-19.787 13.287-46.686 18.33-56.181 71.946-8.221 120.102 11.646 131.034 16.762l10.721 25.262v23.801c0 24.173-8.764 48.626-24.045 67.089zm-113.115-199.119c.58 0 1.145-.065 1.69-.183a7.979 7.979 0 0 0 6.509-1.447c21.571-16.384 52.864-10.101 83.127-4.023 16.195 3.252 31.687 6.362 46.087 6.362 1.994 0 3.967-.06 5.919-.188 2.411 13.547 4.358 42.711-1.064 78.784l-2.259-5.322a8.004 8.004 0 0 0-3.525-3.894c-2.298-1.257-57.177-30.579-146.492-19.367a7.99 7.99 0 0 0-6.531 3.983c-.512.886-7.473 13.042-13.499 28.588-2.735-14.816-5.242-31.478-5.242-42.779.001-27.986 17.719-40.514 35.28-40.514zM393.884 349.856a8.412 8.412 0 0 0-.521-.127l-47.598-9.956-12.583-19.081a7.81 7.81 0 0 0-.278-.396 14.135 14.135 0 0 0-9.556-5.523 14.135 14.135 0 0 0-10.755 3.205l-56.593 48.717-56.594-48.716-.153-.129a14.136 14.136 0 0 0-10.601-3.077 14.133 14.133 0 0 0-9.556 5.523l-.278.396-12.583 19.081-47.598 9.956a8.412 8.412 0 0 0-.521.127c-13.84 3.877-25.614 12.458-34.05 24.815-7.696 11.272-11.934 24.88-11.934 38.317v15.041c0 13.195 11.75 23.931 26.193 23.931h139.46l.03.001.033-.001h36.303l.033.001.03-.001h139.46c14.443 0 26.193-10.735 26.193-23.931v-15.041c0-13.438-4.238-27.045-11.934-38.317-8.434-12.356-20.209-20.937-34.049-24.815zm-72.643-18.209l9.932 15.06-39.749 54.654-23.671-23.67 53.488-46.044zm-70.489 88.379h10.496l3.187 15.935h-16.87l3.187-15.935zm13.248-20.383c0 2.634-1.605 4.382-2.667 4.382h-10.667c-1.062 0-2.667-1.748-2.667-4.382v-3.079l8-8 8 8v3.079zm-73.241-67.996l53.488 46.043-23.671 23.67-39.749-54.654 9.932-15.059zm-102.628 96.382v-15.041c0-18.872 11.696-41.252 34.054-47.656l45.486-9.514 45.472 62.524a8 8 0 0 0 12.126.952l9.329-9.329c.423.782.888 1.532 1.4 2.242l-4.75 23.752h-132.923c-5.526.001-10.194-3.631-10.194-7.93zm335.738 0c0 4.299-4.668 7.931-10.193 7.931h-132.924l-4.75-23.752c.512-.71.977-1.46 1.4-2.242l9.329 9.329a7.999 7.999 0 0 0 12.126-.952l45.472-62.524 45.486 9.514c22.358 6.404 34.054 28.784 34.054 47.656v15.04zm-359.704-192.95c0 19.437 6.614 37.677 18.623 51.361 12.189 13.889 28.467 21.538 45.834 21.538 13.021 0 25.557-4.346 36.254-12.567 3.503-2.692 4.16-7.715 1.467-11.218a8 8 0 0 0-11.218-1.468c-7.875 6.053-17.04 9.253-26.503 9.253-26.72 0-48.458-25.525-48.458-56.899v-4.702c0-12.644 5.229-29.382 7.969-37.288 17.266-1.53 32.684.734 45.276 2.594l1.427.21a8 8 0 0 0 2.331-15.83l-1.421-.209c-14.702-2.172-32.995-4.872-54.363-2.136l-.076.009-.009.001-.083.015a7.854 7.854 0 0 0-.682.123l-.373.103-.367.105-.46.175-.257.103a7.364 7.364 0 0 0-.454.225l-.24.125-.399.247-.266.173-.32.244-.303.242-.242.225-.327.317-.188.212-.321.377-.17.235-.274.393-.199.344-.183.324a8.167 8.167 0 0 0-.295.654l-.025.056a.021.021 0 0 1-.003.007l-.021.055c-.139.357-.716 1.852-1.539 4.187-.639-5.087-1.058-9.878-1.058-13.716 0-17.291 8.344-25.031 16.614-25.031.391 0 .772-.037 1.148-.091.379.055.761.092 1.146.092a7.961 7.961 0 0 0 4.833-1.63c7.467-5.672 17.1-7.578 31.23-6.183 4.393.438 8.313-2.778 8.748-7.175a8 8 0 0 0-7.175-8.747c-10.842-1.071-26.535-1.355-40.191 7.742-19.061.154-32.352 16.977-32.352 41.024 0 16.848 6.642 47.553 7.915 53.283v8.517zM56 379.979h-35.613c-2.511 0-4.387-1.502-4.387-2.846v-10.241c0-11.865 7.297-25.92 21.248-29.965l29.132-6.094 15.045 21.704a7.99 7.99 0 0 0 6.582 3.443 8 8 0 0 0 6.567-12.558l-14.984-21.617 4.425-6.71 31.199 23.294a7.999 7.999 0 0 0 11.196-1.624 7.998 7.998 0 0 0-1.624-11.196l-34.243-25.566a12.192 12.192 0 0 0-8.966-2.513 12.185 12.185 0 0 0-8.241 4.763 7.81 7.81 0 0 0-.278.396l-7.988 12.113-31.376 6.563a8.412 8.412 0 0 0-.521.127c-21.778 6.1-33.173 27.477-33.173 45.44v10.241c0 10.392 9.146 18.846 20.387 18.846h35.613a8 8 0 0 0 0-16zm319.84-248.002c11.762.235 24.766 2.34 37.343 4.375 9.502 1.537 18.604 2.996 26.508 3.504a571.796 571.796 0 0 1-2.931 49.697l-.049-.034a7.724 7.724 0 0 0-.387-.262l-.177-.12-.211-.123-.028-.016c-16.009-9.642-35.411-15.205-59.31-16.997-4.41-.334-8.245 2.974-8.576 7.379a8 8 0 0 0 7.379 8.576c20.385 1.529 36.89 6.005 50.368 13.652 1.895 4.469 6.066 15.78 6.066 28.769v4.702c0 31.375-21.738 56.899-48.458 56.899-9.463 0-18.627-3.2-26.503-9.253a8 8 0 0 0-9.751 12.686c10.697 8.222 23.233 12.567 36.254 12.567 17.368 0 33.646-7.649 45.834-21.538 12.009-13.685 18.623-31.925 18.623-51.361v-8.646c1.124-5.98 7.729-43.222 7.906-92.444a7.993 7.993 0 0 0 .245-2.48c-.251-4.269-3.81-7.551-8.035-7.52l-.201-.01-.459.023c-7.742.402-19.308-1.464-31.553-3.445-12.511-2.024-26.691-4.319-39.578-4.576-4.446-.107-8.07 3.421-8.159 7.838a8.002 8.002 0 0 0 7.84 8.158zm102.988 189.474a8.412 8.412 0 0 0-.521-.127l-31.376-6.563-7.988-12.113a9.722 9.722 0 0 0-.278-.396 12.185 12.185 0 0 0-8.241-4.763 12.185 12.185 0 0 0-8.966 2.513l-34.243 25.566a7.998 7.998 0 0 0-1.624 11.196 7.998 7.998 0 0 0 11.196 1.624l31.199-23.294 4.425 6.71-14.985 21.616a8 8 0 0 0 13.149 9.115l15.045-21.704 29.132 6.094c13.95 4.045 21.248 18.101 21.248 29.965v10.241c0 1.343-1.876 2.846-4.387 2.846h-35.613a8 8 0 0 0 0 16h35.613c11.241 0 20.387-8.454 20.387-18.846v-10.241c0-17.961-11.395-39.338-33.172-45.439z"/></svg>