<svg xmlns="http://www.w3.org/2000/svg" viewBox="0 0 512 512"><path fill="#39468a" d="M499.5 122.9h-61.3c-6.9 0-12.5 5.6-12.5 12.5v.1h-15.4c-5.9 0-10.8 4.1-12.1 9.6-3.2-.2-6.9-.5-10.8-.8-12.2-14-26.6-26.1-42.6-35.5-3.6-2.1-8.2-.9-10.3 2.7-2.1 3.6-.9 8.2 2.7 10.3 10.1 5.9 19.4 12.9 27.8 20.9-34-2.6-73.4-5.6-73.8-5.6-10.4 0-20.6 5.3-27.1 13.4l-1.1 1.1-3-3.1c-7.7-8-21.2-13.4-33.5-13.4-2.2 0-4.3.2-6.3.5l-74.4 13.4c28.4-29.9 68.4-48.5 112.7-48.5 15.1 0 30 2.2 44.4 6.4 4 1.2 8.1-1.1 9.3-5.1 1.2-4-1.1-8.1-5.1-9.3-15.7-4.7-32.1-7-48.6-7-55.4 0-104.7 26.6-135.9 67.7l-6.4 1.1v-6.3c0-6.9-5.6-12.5-12.5-12.5h-9.9c35.7-48.8 92.6-81.1 157-83.6l-12.7 12.7c-2.9 2.9-2.9 7.7 0 10.6 1.5 1.5 3.4 2.2 5.3 2.2s3.8-.7 5.3-2.2l25.6-25.6c1.4-1.4 2.2-3.3 2.2-5.3s-.8-3.9-2.2-5.3l-25.6-25.6c-2.9-2.9-7.7-2.9-10.6 0-2.9 2.9-2.9 7.7 0 10.6l12.9 13c-55.7 1.9-107.8 24.4-147.5 64-7.9 7.9-15.1 16.3-21.6 25.1-2.2-1.9-5.1-3.1-8.2-3.1h-61.2c-6.9 0-12.5 5.6-12.5 12.5v174.5c0 6.9 5.6 12.5 12.5 12.5h61.3c6.9 0 12.5-5.6 12.5-12.5v-.1h10.4c22.6 67.7 86.6 116.6 161.8 116.6s139.2-48.9 161.8-116.6h5.4v.1c0 6.9 5.6 12.5 12.5 12.5h13.3c-5.2 15.2-12.3 29.8-21.1 43.5-2.2 3.5-1.2 8.1 2.3 10.4 1.3.8 2.7 1.2 4 1.2 2.5 0 4.9-1.2 6.3-3.5 10.4-16.2 18.5-33.5 24.2-51.6h32.2c6.9 0 12.5-5.6 12.5-12.5v-174.6c.1-6.8-5.5-12.5-12.4-12.5zm-86.7 82h12.9v12.3h-12.9v-12.3zm0 27.2h12.9v12.3h-12.9v-12.3zm12.9-42.2h-12.9v-12.2h12.9v12.2zm-12.9 69.5h12.9v12.3h-12.9v-12.3zm12.9-108.9v12.1h-12.9v-12.1h12.9zm-145.9 5.6c3.4-2.5 7.5-4 11.4-4 .3 0 74.2 5.6 106.6 8.1v118.3l-9 2.8c-1.3-3-3.2-5.7-5.6-8l-10.1-10.3-.6-.6-11.5-11.6 1-.5c3.7-1.8 5.3-6.3 3.4-10-1.8-3.7-6.3-5.3-10-3.4-5.5 2.7-11.5 4.1-17.7 4.1-20.5 0-37.6-15.3-39.9-35.6-.3-2.9-2.3-5.3-5-6.2-2.7-1-5.7-.3-7.8 1.8l-43 43c-2.5 2.5-5.9 3.9-9.5 3.9s-7-1.4-9.5-3.9l-7-7c-5.2-5.2-5.3-13.8 0-19 0-.2 63.5-61.7 63.8-61.9zm-57-5.8c1.1-.2 2.3-.3 3.7-.3 8.1 0 17.8 3.8 22.7 8.9l.1.1 3 3-46.7 45.1-.1.1c-11.1 11.1-11.1 29.2 0 40.3l7 7c5.4 5.4 12.5 8.3 20.1 8.3s14.8-3 20.1-8.3l33.7-33.7c8.1 20.7 28.2 35.1 51.4 35.1 2.3 0 4.6-.1 6.8-.4l17.2 17.4.2.3.3.3 10.3 10.3c2.3 2.3 3.6 5.4 3.6 8.6s-1.3 6.4-3.6 8.6l-1.1 1.1c-2.3 2.3-5.4 3.6-8.6 3.6s-6.4-1.3-8.6-3.6l-6.4-6.4-.6-.6-.1-.1-37.6-37.6c-2.9-2.9-7.7-2.9-10.6 0s-2.9 7.7 0 10.6l37.5 37.5c4.5 4.8 4.5 12.4-.2 17.1l-1.1 1.1c-2.3 2.3-5.4 3.6-8.6 3.6s-6.3-1.3-8.6-3.6l-7-7-37.9-37.9c-2.9-2.9-7.7-2.9-10.6 0s-2.9 7.7 0 10.6l37.8 37.8c4.5 4.8 4.4 12.4-.2 17.1l-1.1 1.1c-2.3 2.3-5.4 3.6-8.6 3.6-3.3 0-6.4-1.3-8.6-3.6l-7-7-31-31c-2.9-2.9-7.7-2.9-10.6 0-2.9 2.9-2.9 7.7 0 10.6l30.9 30.9c4.5 4.8 4.5 12.4-.2 17.1l-1.1 1.1c-2.3 2.3-5.4 3.6-8.6 3.6h-.1c2.8-5.1 3.9-10.8 3.2-16.5-.8-7-4.4-13-9.9-16.8-3.9-2.7-8.5-4.1-13.3-4.1-.8 0-1.7 0-2.5.1 0-.7-.1-1.4-.2-2-.8-7-4.4-13-9.9-16.8-3.9-2.7-8.5-4.1-13.3-4.1-.8 0-1.7 0-2.5.1-.3-7.5-3.8-14.5-10-18.8-3.9-2.7-8.5-4.1-13.3-4.1-.8 0-1.7 0-2.5.1-.3-7.5-3.8-14.5-10-18.8-3.9-2.7-8.5-4.1-13.3-4.1-8.7 0-16.9 4.5-22.2 11.9l-2.2 3.1-15.8-12.2v-98l106.4-19.4zm-83.4 144.9l7.1-10.1c2.4-3.4 6.1-5.5 9.8-5.5 1.8 0 3.4.5 4.8 1.4 4.3 3 4.9 9.9 1.2 15.1l-7 10.1c-2.4 3.4-6.1 5.5-9.9 5.5-1.8 0-3.4-.5-4.8-1.4-2-1.4-3.2-3.6-3.6-6.3-.3-3 .6-6.1 2.4-8.8zm25.9 22.9l1.9-2.7.4-.5 5-7.1c2.4-3.3 6-5.3 9.7-5.3 1.8 0 3.4.5 4.8 1.4 4.3 3 4.9 9.9 1.2 15.1l-7.1 10.1c-2.4 3.4-6.1 5.5-9.8 5.5-1.8 0-3.4-.5-4.8-1.4-4.3-3-4.9-9.9-1.3-15.1zm25.9 22.8l1.9-2.7.4-.5 5-7.1c2.4-3.3 6-5.3 9.7-5.3 1.8 0 3.4.5 4.8 1.4 2 1.4 3.2 3.6 3.6 6.3.4 3-.5 6.1-2.3 8.8l-7.1 10.1c-2.4 3.4-6.1 5.5-9.9 5.5-1.8 0-3.4-.5-4.8-1.4-2-1.4-3.2-3.6-3.6-6.3-.4-3 .5-6.1 2.3-8.8zm25.9 22.8l1.9-2.7c.1-.2.2-.3.4-.5l5-7.2c2.4-3.2 6-5.3 9.6-5.3 1.8 0 3.4.5 4.8 1.4 2 1.4 3.2 3.6 3.6 6.3.4 3-.5 6.1-2.3 8.8l-7.1 10.1c-2.4 3.4-6.1 5.5-9.8 5.5-1.8 0-3.4-.5-4.8-1.4-4.3-2.8-4.9-9.8-1.3-15zm-138.3-111.2c-4.1 0-7.5 3.4-7.5 7.5v47.5h-56.3v-169.6h56.3v87.1c0 4.1 3.4 7.5 7.5 7.5s7.5-3.4 7.5-7.5v-74.5h14.9v144.3h-14.9v-34.8c0-4.1-3.4-7.5-7.5-7.5zm179.7 159c-67.9 0-125.7-43.7-146.9-104.4 2.8-2.3 4.6-5.8 4.6-9.7v-11l7.8 6c-1.7 4.3-2.3 8.9-1.8 13.4.8 7 4.4 13 9.9 16.8 3.9 2.7 8.5 4.1 13.3 4.1l2.5-.1c.3 7.5 3.8 14.5 10 18.8 3.9 2.7 8.5 4.1 13.3 4.1l2.5-.1c0 .7.1 1.4.2 2 .8 7 4.4 13 9.9 16.8 3.9 2.7 8.5 4.1 13.3 4.1l2.5-.1c.3 7.5 3.8 14.5 10 18.8 3.9 2.7 8.5 4.1 13.3 4.1 8.5 0 16.5-4.3 21.8-11.4 2.9 1 6 1.6 9.2 1.6 7.3 0 14.1-2.8 19.3-8l1.1-1.1c3.9-3.9 6.4-8.8 7.4-14 2.7.9 5.6 1.4 8.6 1.4 7.3 0 14.1-2.8 19.2-7.9l1.1-1.1c3.9-3.9 6.4-8.8 7.4-14 2.7.9 5.6 1.4 8.6 1.4 7.3 0 14.1-2.8 19.2-7.9l1.1-1.1c3.9-3.9 6.4-8.8 7.4-14 2.7.9 5.6 1.4 8.6 1.4 7.3 0 14.1-2.8 19.2-7.9l1.1-1.1c4.2-4.2 6.9-9.6 7.7-15.4l6.9-2.1v3.3c0 4.9 2.9 9.2 7 11.2-21.6 60.1-79 103.1-146.3 103.1zm154.3-116.6v-8.2h12.9v8.2h-12.9zm84.2 12.6h-56.3v-169.6h56.3v169.6zm-75.8 83.9c-3.1-2.8-7.8-2.5-10.6.6-38.4 42.9-93.3 67.6-150.8 68l12.7-12.7c2.9-2.9 2.9-7.7 0-10.6s-7.7-2.9-10.6 0l-25.6 25.6c-2.9 2.9-2.9 7.7 0 10.6l25.6 25.6c1.5 1.5 3.4 2.2 5.3 2.2s3.8-.7 5.3-2.2c2.9-2.9 2.9-7.7 0-10.6l-13-13c61.9-.3 120.9-26.9 162.3-73 2.8-3 2.5-7.7-.6-10.5z"/></svg>