<svg xmlns="http://www.w3.org/2000/svg" viewBox="0 0 1613 396" enable-background="new 0 0 1613 396"><style type="text/css">.st0{fill:none;stroke:#2e4594;stroke-width:10;stroke-miterlimit:10;} .st1{fill: #2e4594;stroke:#2e4594;stroke-miterlimit:10;}</style><path class="st0" d="M226.6 9.5l105.3 1 52.1 90.1-51.7 88.8h-103.7l-51.2-89.5zM57.4 105l105.2 1 52.1 90.1-51.6 88.8h-103.8l-51.2-89.5zM227.6 205l105.3 1 52.1 90.1-51.7 88.8h-103.7l-51.2-89.5z"/><path class="st1" d="M66.5 120.5h88.5l42.5 75-43.5 76h-87.5l-43-75.5zM236.5 219.5h88.5l42.5 75-43.5 76h-87.5l-43-75.5zM236.5 24h88.5l42.5 75-43.5 76h-87.5l-43-75.5zM514.7 151v-24.3h-87s-57 10.7-57 67.3c0 63 54.8 73 54.8 73h120.8l-23.7-24-91.4-.6s-35.2-6.4-35.2-48.4c0-38.3 36.5-42 36.5-42l82.2-1zM526.5 126.7v113.8l24.3 23.5v-112.7l82.8-.3s19.8 1.3 19.8 29l-18.8 25.8-65.8 1-.3 21.3 52.8.3 35.5 38.8h34.5l-42.3-42.9s28.5-5.8 28.5-47.8l-39-49.8h-112zM665 126.7h32.8l54 64.6 30.7-35.5h30.3l-48.5 57.7-.5 53.5h-24.9v-54.5zM787.3 151h165s20.3 2.5 20.3 26.8l-19 25.8h-64l-.3 25.3 65.5-1.3s42-3.3 42-50.3l-41.3-50.6h-148.2l-20 24.3zM846.8 155.8h24.5v111.2l-24.5-.7zM982.5 126.7h130.5v24.8h-52.3v115.5h-25.3v-115.5h-40s-5.5-10.7-13-16.5v-8.3h.1zM1122.9 161.5c-3 4.7-23.2 39.6 5.3 78.4 0 0 0 .1.1.1.6 1.1 15.7 26.3 61.5 27 .7 0 1.2-.5 1.2-1.2v-10.4c0-.1 0-.2.1-.3l3.3-10.9c.1-.3.1-.6 0-.8l-7.9-18.7c-.1-.3-.1-.6 0-.9l3.4-8.6c.3-.6-.1-1.4-.8-1.6l-3.5-1c-.2-.1-.4-.2-.5-.3l-4.6-4.6c-.2-.2-.3-.3-.6-.3l-8.5-2.1c-.3-.1-.5-.2-.7-.4l-3.9-5.2c-.5-.7-1.6-.6-2 .1-.4.8-1.5.8-2 .2l-8.8-11.5c-.2-.2-.2-.5-.2-.7v-11.9c0-.3-.1-.5-.3-.7l-7.1-9.1c-.3-.4-.7-.5-1.2-.4l-13.3 2.6h-.6l-2.6-.7c-.4-.1-.7-.4-.8-.8l-1.5-4.8c-.2-.5-.6-.8-1.1-.8h-1.5c-.3-.2-.7 0-.9.3zM1176.5 199.4v-3.2c0-.6.3-1.2.9-1.4l3.3-1.8c.5-.3 1.1-.3 1.6 0l2.1 1.2.2.1.9.4c.2.1.3.1.5.1l1.7.1c1 .1 1.8-.7 1.8-1.6v-1.5c0-.5.2-.9.5-1.2l12.2-11.3c.1-.1.3-.2.5-.3l8.7-3.5c.2-.1.4-.1.6-.1h3.8c.9 0 1.7-.7 1.7-1.7 0-.4-.1-.8-.4-1.1l-8.1-9.8c-.2-.2-.3-.4-.3-.6l-.8-2.9c-.2-.7-.8-1.2-1.6-1.2h-5c-.1 0-.3 0-.4-.1l-4.9-1.3c-.8-.2-1.6.2-2 1l-2 4.9c-.4.9-1.3 1.2-2.2.9l-4.3-1.9c-.5-.2-.9-.7-1-1.3l-.2-2c-.1-1 .7-1.8 1.6-1.8h1.4c.6 0 1.2-.4 1.5-1l1-2.2s0-.1.1-.1l1.2-3.3c.3-.8 1.2-1.2 2-1l3.3.9c.5.1.9.5 1.1.9l1.1 2.5c.2.5.6.8 1.1.9l5.1 1.3c.6.1 1.2 0 1.6-.4l.1-.1c.7-.7.6-1.8-.1-2.4l-8.1-6.7c-.6-.5-.8-1.4-.4-2l.7-1.4c.4-.7 1.2-1 1.9-.8l6.6 1.9c.4.1.7.4.9.7l4.8 7.5c.1.2.2.4.2.6l.6 2.9c.1.4.3.7.5.9l8.1 7c.3.3.7.4 1.1.4h.8c.5 0 1-.3 1.3-.7l2.2-3.1c.3-.5.9-.7 1.4-.7l6.6.4h.5l4.4-1c.7-.1 1.4.1 1.7.7 3.5 5.5 19.3 34 4.2 68.4l-.1.2c-1.1 1.9-18.7 30.1-44.4 36.4-1 .3-2.1-.5-2.1-1.6v-4.3c0-.6.3-1.1.8-1.4l5.1-3.2.2-.1 4.3-3.6c.1 0 .1-.1.2-.2l4.1-4.5c.1-.1.2-.2.3-.4l4-8 2.6-5.7c.1-.2.1-.4.1-.5l.5-5.1v-4.8999999999999995c0-.4-.1-.8-.4-1.1l-6.6-7.4c-.2-.2-.5-.4-.8-.5l-6.4-1.9-9.2-2.4c-.2-.1-.5-.1-.7 0l-6 1c-.5.1-1.1-.1-1.5-.5l-4.3-4.5c-.2-.2-.5-.4-.8-.5l-7.5-1.6c-.8-.3-1.3-1-1.3-1.8zM1129.3 152l10.3-2.5h12.3l8.8-3.8 13.5-.3 3.8-4.5h16.8l8.8-7.8h9.5s-9.1-6.6-33.3-5.9c-8.7.3-17.3 2.3-25.3 6-8.4 3.9-18.3 9.9-25.2 18.8zM1262.8 127.3v139.7h24.5v-115.7h81.8s19.8 3 19.8 27.8l-19.8 25.3-63.8.5v22.8h64s43-1.3 43-48.5l-37.5-51.7h-112v-.2zM1420.5 127.3h24v95.7l-24 40.5zM1423.3 267l82.5-138s3-4 10-4c5.9 0 8.3 3.5 8.3 3.5l84 138.5h-31.8l-21-35.8h-63l10.3-19 41.5-.8-29.8-50.5-63.3 106.1h-27.7z"/></svg>