<svg xmlns="http://www.w3.org/2000/svg" viewBox="0 0 350 75" enable-background="new 0 0 350 75"><path d="M23.3 45.3l-20.4-39h14.5l11.4 23.4 1.2 6.6h.4l1.3-6.7 11-23.2h13.1l-20.3 39v23.2h-12.2v-23.3zM49.1 46.2c0-7.5 1.8-13.3 5.5-17.4 3.7-4.1 8.8-6.1 15.4-6.1 3.6 0 6.6.6 9.2 1.7 2.6 1.1 4.8 2.7 6.5 4.8 1.7 2 3 4.5 3.9 7.4.9 2.9 1.3 6.1 1.3 9.6 0 7.5-1.8 13.3-5.5 17.4-3.6 4.1-8.8 6.1-15.4 6.1-3.6 0-6.6-.6-9.2-1.7-2.6-1.1-4.8-2.7-6.5-4.8-1.7-2-3-4.5-3.9-7.4-.8-2.9-1.3-6.1-1.3-9.6zm11.9 0c0 2 .2 3.8.5 5.4.4 1.7.9 3.1 1.6 4.4.7 1.2 1.6 2.2 2.8 2.9 1.2.7 2.5 1 4.1 1 3 0 5.3-1.1 6.7-3.3 1.5-2.2 2.2-5.7 2.2-10.4 0-4.1-.7-7.4-2-9.9-1.4-2.5-3.7-3.8-6.9-3.8-2.8 0-5.1 1.1-6.7 3.2-1.5 2.2-2.3 5.7-2.3 10.5z" fill="#2e4594"/><path d="M141 20.7c0 1.5-.2 3.1-.6 4.6-.4 1.5-1 2.9-1.9 4.2-.9 1.3-2 2.4-3.4 3.4s-3.1 1.7-5.1 2.2v.5c1.8.3 3.4.8 5 1.5s3 1.7 4.2 2.9c1.2 1.2 2.1 2.8 2.8 4.5.7 1.8 1 3.9 1 6.3 0 3.2-.7 6-2 8.3-1.4 2.3-3.2 4.2-5.5 5.7s-4.9 2.6-7.8 3.3c-2.9.7-5.9 1.1-9 1.1h-3.9c-1.6 0-3.3 0-5.1-.1-1.8-.1-3.6-.2-5.5-.4s-3.6-.4-5.1-.8v-61.2c1.1-.2 2.4-.4 3.9-.5 1.5-.2 3-.3 4.7-.4l5.1-.3c1.7-.1 3.5-.1 5.2-.1 2.9 0 5.7.2 8.5.7 2.8.4 5.2 1.2 7.4 2.4 2.2 1.1 3.9 2.7 5.2 4.7 1.3 1.9 1.9 4.5 1.9 7.5zm-26 11.7c.8 0 1.8 0 2.9-.1 1.1-.1 2-.1 2.7-.3 2.2-.7 4.2-1.8 5.8-3.2 1.6-1.4 2.4-3.3 2.4-5.5 0-1.5-.3-2.8-.9-3.8-.6-1-1.4-1.8-2.4-2.4-1-.6-2.1-1-3.3-1.2-1.2-.2-2.5-.4-3.9-.4-1.5 0-3 0-4.3.1-1.3.1-2.3.1-3 .3v16.4h4zm3.9 26.7c1.5 0 2.9-.2 4.2-.5 1.4-.4 2.6-.9 3.6-1.6 1-.7 1.9-1.7 2.5-2.8.6-1.1 1-2.4 1-4 0-1.9-.4-3.5-1.1-4.6-.8-1.1-1.7-2-3-2.6-1.2-.6-2.6-1-4.1-1.2-1.5-.2-3-.3-4.5-.3h-6.4v17c.3.1.8.2 1.4.3.6.1 1.3.1 2 .1s1.5.1 2.3.1c.8.1 1.5.1 2.1.1zM150.7 11.5c0-1.7.6-3.2 1.9-4.4 1.3-1.2 3-1.8 5.3-1.8 2.2 0 4.1.6 5.5 1.8 1.4 1.2 2.1 2.7 2.1 4.4 0 1.7-.7 3.2-2.1 4.3-1.4 1.2-3.2 1.7-5.5 1.7s-4-.6-5.3-1.7c-1.2-1.1-1.9-2.6-1.9-4.3zm1.7 12.5h11.5v44.4h-11.5v-44.4zM170.7 24h6.1v-8.3l11.5-3.3v11.6h10.8v9.8h-10.8v17c0 3.1.3 5.3.9 6.6.6 1.3 1.8 2 3.5 2 1.2 0 2.2-.1 3.1-.4.9-.2 1.8-.6 2.9-1.1l2 8.9c-1.6.8-3.5 1.4-5.6 2s-4.3.8-6.5.8c-4.1 0-7.1-1.1-9-3.2-1.9-2.1-2.9-5.5-2.9-10.3v-22.3h-6.1v-9.8z" fill="#2e4594"/><path d="M205 62.6c0-2.1.7-3.7 2-4.9 1.3-1.2 3-1.8 5.2-1.8s4 .6 5.3 1.8c1.3 1.2 2 2.9 2 4.9 0 2.1-.7 3.7-2 5-1.3 1.2-3.1 1.9-5.3 1.9-2.1 0-3.8-.6-5.2-1.9-1.4-1.3-2-3-2-5zM255.3 68.4v-25.2c0-3.6-.5-6.2-1.6-7.8-1-1.6-2.8-2.4-5.3-2.4-2.2 0-4 .6-5.6 1.9-1.5 1.3-2.6 2.9-3.2 4.8v28.8h-11.5v-44.5h9.1l1.3 5.9h.4c1.4-1.9 3.2-3.6 5.4-5s5.1-2.1 8.7-2.1c2.2 0 4.1.3 5.9.9 1.7.6 3.2 1.6 4.4 2.9 1.2 1.4 2.1 3.2 2.7 5.5.6 2.3.9 5.2.9 8.7v27.6h-11.6zM312 64.6c-1.8 1.4-4.2 2.6-7.2 3.6s-6.3 1.5-9.7 1.5c-7.2 0-12.4-2.1-15.7-6.3s-5-9.9-5-17.2c0-7.8 1.9-13.7 5.6-17.6 3.7-3.9 9-5.9 15.7-5.9 2.2 0 4.4.3 6.6.9 2.1.6 4 1.6 5.7 2.9 1.7 1.4 3 3.2 4 5.5s1.5 5.2 1.5 8.6c0 1.2-.1 2.6-.2 4s-.4 2.9-.7 4.4h-26.6c.2 3.7 1.1 6.5 2.9 8.4 1.7 1.9 4.6 2.8 8.5 2.8 2.4 0 4.6-.4 6.5-1.1 1.9-.7 3.4-1.5 4.4-2.3l3.7 7.8zm-16.4-32.6c-3 0-5.2.9-6.7 2.7-1.4 1.8-2.3 4.2-2.6 7.2h16.4c.2-3.2-.2-5.7-1.5-7.4-1.1-1.6-3-2.5-5.6-2.5zM317 24h6.1v-8.3l11.5-3.3v11.6h10.8v9.8h-10.8v17c0 3.1.3 5.3.9 6.6.6 1.3 1.8 2 3.5 2 1.2 0 2.2-.1 3.1-.4.9-.2 1.8-.6 2.9-1.1l2 8.9c-1.6.8-3.5 1.4-5.6 2s-4.3.8-6.5.8c-4.1 0-7.1-1.1-9-3.2-1.9-2.1-2.9-5.5-2.9-10.3v-22.3h-6v-9.8z" fill="#2e4594"/></svg>