<svg xmlns="http://www.w3.org/2000/svg" viewBox="0 0 901.8 156.4" enable-background="new 0 0 901.8 156.4"><style type="text/css">.st0{fill:#2e4594;}</style><path class="st0" d="M219.2 40.3h-13.9v75.9h44.5v-11.8h-30.6zM293.4 40.3h14v75.9h-14zM405.9 41.2c-.9.9-1.3 1.3-1.7 2.2l-17.9 46.2c-1.3 3.1-2.2 6.5-3.1 10.5-.4-2.2-.9-3.9-1.7-5.7-.4-1.7-1.3-3.5-1.7-4.8l-17.4-46.2c-.4-.9-.9-1.7-1.7-2.2-.9-.4-1.7-.9-3.1-.9h-11.3l30.5 75.9h12.6l30.5-75.9h-11.3c-1 0-2.3.4-2.7.9zM462.6 116.2h47.5v-11.3h-33.6v-21.4h26.6v-10.9h-26.6v-20.9h33.6v-11.4h-47.5zM569.9 57.8c2.2-2.2 4.8-3.9 7.9-5.2 3.1-1.3 6.1-1.7 10-1.7 3.1 0 5.7.4 7.4.9 2.2.4 3.5 1.3 4.8 2.2s2.2 1.3 3.1 2.2c.9.4 1.7.9 2.6.9.9 0 1.3 0 1.7-.4s.9-.9.9-1.3l4.8-6.5c-3.1-3.1-6.5-5.2-10.9-7-4.4-1.7-9.2-2.6-14.8-2.6s-10.9.9-15.7 3.1c-4.8 1.7-8.7 4.4-12.2 7.9s-6.1 7.4-7.9 12.2c-1.7 4.8-2.6 10-2.6 15.7 0 5.7.9 10.9 2.6 15.7 1.7 4.8 3.9 8.7 7.4 12.2 3.1 3.5 7 6.1 11.3 7.9 4.4 1.7 9.6 3.1 15.3 3.1 6.1 0 11.8-.9 16.1-3.1 4.4-2.2 8.3-4.8 11.3-8.7l-5.7-6.1c-.4-.4-1.3-.9-2.2-.9-.4 0-.9 0-1.3.4s-.9.4-1.3.9l-3.5 2.6s-2.6 1.3-3.9 1.7c-1.3.4-2.6.9-4.4.9s-3.5.4-5.2.4c-3.1 0-6.1-.4-9.2-1.7-2.6-1.3-5.2-3.1-7.4-5.2-2.2-2.2-3.5-5.2-4.8-8.3-1.3-3.5-1.7-7-1.7-11.3 0-3.9.4-7.9 1.7-11.3 1.8-4.4 3.6-7.5 5.8-9.6zM714.2 49.5c-3.5-3.5-7.4-6.1-12.2-8.3-4.8-1.7-10-3.1-15.7-3.1s-10.9.9-15.7 3.1-8.7 4.8-12.2 8.3-6.1 7.4-7.9 12.2-2.6 10-2.6 15.3c0 5.2.9 10.9 2.6 15.3 1.7 4.4 4.4 8.7 7.9 12.2s7.4 6.1 12.2 8.3c4.8 2.2 10 3.1 15.7 3.1s10.9-.9 15.7-3.1 8.7-4.8 12.2-8.3 6.1-7.4 7.9-12.2c1.7-4.8 2.6-10 2.6-15.3 0-5.2-.9-10.9-2.6-15.3-1.8-4.4-4.4-8.7-7.9-12.2zm-5.2 38.8c-1.3 3.5-2.6 6.1-4.8 8.3-2.2 2.2-4.4 3.9-7.4 5.2-3.1 1.3-6.1 1.7-10 1.7s-7-.4-10-1.7c-3.1-1.3-5.7-3.1-7.4-5.2-2.2-2.2-3.5-5.2-4.8-8.3-1.3-3.5-1.7-7-1.7-11.3s.4-7.9 1.7-11.3c1.3-3.5 2.6-6.1 4.8-8.3s4.8-3.9 7.4-5.2c3.1-1.3 6.1-1.7 10-1.7s7 .4 10 1.7c3.1 1.3 5.7 3.1 7.4 5.2 2.2 2.2 3.5 5.2 4.8 8.3s1.7 7 1.7 11.3-.8 8.2-1.7 11.3zM769.6 40.3h14v75.9h-14zM886.1 86.1v3.5s0 2.2.4 3.5l-39.7-50.6c-.4-.4-.9-.9-.9-1.3l-.9-.9s-.9-.4-1.3-.4h-9.1v75.9h12.2v-49.4c0-1.3 0-2.2-.4-3.5l39.7 50.6c.9.9 1.3 1.7 2.2 1.7.9.4 1.7.4 2.6.4h7.4v-75.3h-12.2v45.8zM75.7 5.9c-40.6 0-73.3 32.7-73.3 73.3s32.7 73.3 73.3 73.3 73.3-32.7 73.3-73.3-32.7-73.3-73.3-73.3zm0 137.8c-35.8 0-64.5-28.8-64.5-64.5s28.8-64.6 64.5-64.6 64.5 28.8 64.5 64.5-28.7 64.6-64.5 64.6zM87.9 100.9h8.8v-54.5l-8.8 6.6zM71.4 100.9h8.7v-42.7l-8.7 6.5zM54.8 100.9h8.7v-30.9l-8.7 6.5z"/></svg>