<svg id="Слой_1" data-name="Слой 1" xmlns="http://www.w3.org/2000/svg" viewBox="0 0 678.2 146.45"><defs><style>.cls-1{fill:#fff;}.cls-2{fill:#d97043;}</style></defs><title>Монтажная область 1</title><path class="cls-1" d="M236.63,102.2c-5.82,1.94-16,3.08-22.7,3.08h-5.36V57.6a59.73,59.73,0,0,0-8.44,1.83V46c5.93-1.94,16.08-3.08,22.7-3.08h5.36V90.56a46.6,46.6,0,0,0,8.44-1.82ZM208.57,19.73h19.62V35.81H208.57Z"/><path class="cls-1" d="M280.09,96.84l-4.45,3.08c-5.7,3.88-10.72,6.27-17.45,6.27-12.89,0-20-7.64-20-20.53V73.23c0-18.71,14.26-30.34,33-30.34h28.52v83.84H280.09Zm0-14.26V59H272.9c-9.81,0-15.06,4.45-15.06,14.26v8.9c0,4.9,2.17,7.07,7.07,7.07,3.54,0,8-2.17,11.64-4.45Z"/><path class="cls-1" d="M325.83,74.14c0-22.36,11.63-32.17,32.05-32.17,21.45,0,32.17,9.81,32.17,32.17,0,24-10.72,32.05-32.17,32.05C337.47,106.19,325.83,98.09,325.83,74.14Zm44.6,0C370.44,63,366.78,59,357.88,59s-12.43,4-12.43,15.17S349,89.2,357.88,89.2,370.44,85.2,370.44,74.14Z"/><path class="cls-1" d="M389.71,46c5.93-1.94,16.08-3.08,22.7-3.08h5.36v8.44l4.45-3.08c5.7-4,10.72-6.27,17.45-6.27,12.89,0,20,7.64,20,20.53V74.94c0,18.71-14.26,30.34-33,30.34h-8.9v21.45H398.15V57.6a59.75,59.75,0,0,0-8.44,1.83Zm28.06,19.62V89.2h7.3c9.69,0,15.06-4.45,15.06-14.26V66c0-4.9-2.28-7.07-7.19-7.07-3.54,0-7.87,2.17-11.64,4.45Z"/><path class="cls-1" d="M505.26,103.91a38.52,38.52,0,0,1-12.66,2.28c-14.49,0-24.75-7.76-24.75-24.07V59H458V42.88h9.81v-16h19.62v16h16V59h-16V77.68c0,9,3.42,12.43,9.81,12.43a19.58,19.58,0,0,0,8-2.17Z"/><path class="cls-1" d="M537,102.2c-5.81,1.94-16,3.08-22.7,3.08h-5.36V58.88c-3.65.23-5.48.09-8.44.09V42.88c8.73-.05,16.08,0,22.7,0h5.36V90.56A46.65,46.65,0,0,0,537,88.74ZM508.92,19.73h19.62V35.81H508.92Z"/><path class="cls-1" d="M536.75,74.14C536.75,51.78,548.38,42,568.8,42,590.25,42,601,51.78,601,74.14c0,24-10.72,32.05-32.17,32.05C548.38,106.19,536.75,98.09,536.75,74.14Zm44.6,0C581.35,63,577.7,59,568.8,59s-12.43,4-12.43,15.17S559.91,89.2,568.8,89.2,581.35,85.2,581.35,74.14Z"/><path class="cls-1" d="M678.2,102.2c-5.93,1.94-16.08,3.08-22.7,3.08h-5.36V67c0-4.91-.91-8-5.82-8-3.54,0-8,2.74-12.09,5.36l-3.53,2.17v38.78H609.07V57.6c-3.2.46-16.39,3.7-18.67,4.38V48.52c5.93-1.94,26.32-5.64,32.93-5.64h5.36v9.47l2.73-1.83C638.5,45.39,643.86,42,651.85,42c12.09,0,17.91,7.64,17.91,19.62v29a51.42,51.42,0,0,0,8.44-1.82Z"/><circle class="cls-2" cx="73.23" cy="73.23" r="73.23"/><path class="cls-1" d="M49.38,104.1a9.55,9.55,0,0,1-9.55,9.55h0a9.55,9.55,0,0,1-9.55-9.55V68.86a9.55,9.55,0,0,1,9.55-9.55h0a9.55,9.55,0,0,1,9.55,9.55Z"/><path class="cls-1" d="M114.82,104.07a10.57,10.57,0,0,1-10.57,10.57h0a10.57,10.57,0,0,1-10.57-10.57V35.82a10.57,10.57,0,0,1,10.57-10.57h0a10.57,10.57,0,0,1,10.57,10.57Z"/><path class="cls-1" d="M80.86,105.48a9.16,9.16,0,0,1-9.16,9.16h0a9.16,9.16,0,0,1-9.16-9.16V53.9a9.16,9.16,0,0,1,9.16-9.16h0a9.16,9.16,0,0,1,9.16,9.16Z"/></svg>