<?xml version="1.0" encoding="utf-8"?>
<!-- Generator: Adobe Illustrator 21.1.0, SVG Export Plug-In . SVG Version: 6.00 Build 0)  -->
<svg version="1.1" id="Layer_1" xmlns="http://www.w3.org/2000/svg" xmlns:xlink="http://www.w3.org/1999/xlink" x="0px" y="0px"
	 viewBox="0 0 852.3 173.8" style="enable-background:new 0 0 852.3 173.8;" xml:space="preserve">
<g>
	<g>
		<path style="fill:#00E0C7;" d="M143,153.2l-34.4-34.4l-16.3,6.3l37.4,37.4C134.4,159.8,138.8,156.7,143,153.2z"/>
		<path style="fill:#00E0C7;" d="M162.5,129.6l-37.4-37.4l-6.3,16.3l34.4,34.4C156.7,138.8,159.8,134.4,162.5,129.6z"/>
		<path style="fill:#00E0C7;" d="M57.7,115.2c-15.6-15.6-15.6-41,0-56.6l0,0c15.6-15.6,41-15.6,56.6,0l55.2,55.2
			c2.8-8.5,4.3-17.5,4.3-26.9C173.8,39,134.8,0,86.9,0S0,39,0,86.9c0,47.9,39,86.9,86.9,86.9c8.9,0,17.4-1.4,25.5-3.9L57.7,115.2z"
			/>
	</g>
	<g>
		<path style="fill:#FFFFFF;" d="M284.7,10.8c16.4,0,28.6,11.4,28.6,27.8c0,16.3-12.2,27.8-28.6,27.8S256,54.9,256,38.6
			C256,22.3,268.3,10.8,284.7,10.8z M284.7,23.1c-8.9,0-14.6,6.8-14.6,15.5c0,8.7,5.7,15.5,14.6,15.5c8.9,0,14.6-6.8,14.6-15.5
			C299.3,29.8,293.5,23.1,284.7,23.1z"/>
		<path style="fill:#FFFFFF;" d="M320.7,11.7h26.9c12.1,0,18.7,8.1,18.7,17.9c0,9.7-6.6,17.6-18.7,17.6h-13v18.2h-13.8V11.7z
			 M345.8,23.4h-11.2v12.1h11.2c3.7,0,6.4-2.3,6.4-6C352.2,25.8,349.5,23.4,345.8,23.4z"/>
		<path style="fill:#FFFFFF;" d="M372.9,11.7h39.4v11.7h-25.5v8.9h24.9v11.7h-24.9v9.7h25.5v11.7h-39.4V11.7z"/>
		<path style="fill:#FFFFFF;" d="M434.5,33v32.4h-13.8V11.7h14.2l21.7,30.9V11.7h13.9v53.7h-13.4L434.5,33z"/>
		<path style="fill:#FFFFFF;" d="M513.6,23.8h-15V11.7h43.9v12.1h-15v41.6h-13.8V23.8z"/>
		<path style="fill:#FFFFFF;" d="M570.4,47.2h-7.1v18.2h-13.8V11.7h26.9c11.9,0,18.7,7.9,18.7,17.9c0,9.3-5.7,14.3-10.7,16.1
			l10.9,19.7h-15.9L570.4,47.2z M574.2,23.4h-10.9v12.1h10.9c3.6,0,6.7-2.3,6.7-6C580.9,25.7,577.8,23.4,574.2,23.4z"/>
		<path style="fill:#FFFFFF;" d="M637.4,57.3h-22.3l-2.7,8.1h-15l20.2-53.7h17.4l20.3,53.7h-15L637.4,57.3z M618.7,45.6h15
			l-7.6-21.8L618.7,45.6z"/>
		<path style="fill:#FFFFFF;" d="M659.5,11.7H682c16.9,0,29.1,10.1,29.1,26.8s-12.2,26.9-29,26.9h-22.6V11.7z M682,53.3
			c9.4,0,14.9-6.8,14.9-14.8c0-8.3-5-14.7-14.8-14.7h-8.8v29.5H682z"/>
		<path style="fill:#FFFFFF;" d="M718.4,11.7h13.8v53.7h-13.8V11.7z"/>
		<path style="fill:#FFFFFF;" d="M756.2,33v32.4h-13.8V11.7h14.2l21.7,30.9V11.7h13.9v53.7h-13.4L756.2,33z"/>
		<path style="fill:#FFFFFF;" d="M828.6,10.8c11.8,0,19,5.8,22.9,12.5l-11.6,6.1c-2.2-3.5-6.3-6.4-11.3-6.4c-8.8,0-15,6.8-15,15.5
			c0,8.8,6.2,15.5,15,15.5c4.2,0,8-1.4,10.1-3.2v-4.5h-12.3V34.9h25.9v21c-5.8,6.4-13.6,10.5-23.7,10.5c-16,0-29.1-10.7-29.1-27.8
			C799.5,21.6,812.6,10.8,828.6,10.8z"/>
		<path style="fill:#FFFFFF;" d="M272.5,129.5V162h-13.8v-53.7h14.2l21.7,30.9v-30.9h13.9V162h-13.4L272.5,129.5z"/>
		<path style="fill:#FFFFFF;" d="M318.6,108.3H358V120h-25.5v8.9h24.9v11.7h-24.9v9.7H358V162h-39.4V108.3z"/>
		<path style="fill:#FFFFFF;" d="M378.4,120.4h-15v-12.1h43.9v12.1h-15V162h-13.8V120.4z"/>
		<path style="fill:#FFFFFF;" d="M447.1,128.3l-8.1,33.6h-14.6l-15.4-53.7h15.5l8.1,35.8l9.2-35.8h10.6l9.2,35.8l8-35.8h15.6
			L469.8,162h-14.6L447.1,128.3z"/>
		<path style="fill:#FFFFFF;" d="M516,107.4c16.4,0,28.6,11.4,28.6,27.8c0,16.3-12.2,27.8-28.6,27.8c-16.4,0-28.7-11.4-28.7-27.8
			C487.2,118.8,499.5,107.4,516,107.4z M516,119.6c-8.9,0-14.6,6.8-14.6,15.5c0,8.7,5.7,15.5,14.6,15.5c8.9,0,14.6-6.8,14.6-15.5
			C530.5,126.4,524.8,119.6,516,119.6z"/>
		<path style="fill:#FFFFFF;" d="M572.9,143.8h-7.1V162H552v-53.7h26.9c11.9,0,18.7,7.9,18.7,17.9c0,9.3-5.7,14.3-10.7,16.1
			l10.9,19.7h-15.9L572.9,143.8z M576.8,120h-10.9V132h10.9c3.6,0,6.7-2.3,6.7-6C583.5,122.3,580.4,120,576.8,120z"/>
		<path style="fill:#FFFFFF;" d="M623.1,141.8l-3.6,4.5V162h-13.8v-53.7h13.8v22l16.5-22H653l-20.8,25.1l22,28.6h-17L623.1,141.8z"
			/>
	</g>
</g>
</svg>
