<?xml version="1.0" encoding="utf-8"?>
<!-- Generator: Adobe Illustrator 21.1.0, SVG Export Plug-In . SVG Version: 6.00 Build 0)  -->
<svg version="1.1" id="Layer_1" xmlns="http://www.w3.org/2000/svg" xmlns:xlink="http://www.w3.org/1999/xlink" x="0px" y="0px"
	 viewBox="0 0 50 50" style="enable-background:new 0 0 50 50;" xml:space="preserve">
<path style="fill:#ffffff;" d="M0.8,5.8v38.5h48.3V5.8H0.8z M47.4,7.5v18.1l-6.2-3.9c0.2-0.5,0.3-1,0.3-1.5c0-2.4-2-4.4-4.4-4.4
	c-2.4,0-4.4,2-4.4,4.4c0,0.9,0.3,1.7,0.7,2.4l-6.1,6c-0.7-0.6-1.6-0.9-2.6-0.9c-0.6,0-1.2,0.1-1.7,0.4l-6.1-7.8
	c0.4-0.7,0.7-1.5,0.7-2.4c0-2.4-2-4.4-4.4-4.4c-2.4,0-4.4,2-4.4,4.4c0,0.6,0.1,1.3,0.4,1.8l-6.6,6.7V7.5H47.4z M34.4,20.1
	c0-1.5,1.2-2.7,2.7-2.7c1.5,0,2.7,1.2,2.7,2.7c0,1.5-1.2,2.7-2.7,2.7C35.6,22.8,34.4,21.6,34.4,20.1z M24.7,29.3
	c1.5,0,2.7,1.2,2.7,2.7s-1.2,2.7-2.7,2.7s-2.7-1.2-2.7-2.7S23.2,29.3,24.7,29.3z M10.6,17.8c0-1.5,1.2-2.7,2.7-2.7
	c1.5,0,2.7,1.2,2.7,2.7s-1.2,2.7-2.7,2.7C11.8,20.4,10.6,19.2,10.6,17.8z M41.8,42.5V40H40v2.5h-6.2V40h-1.8v2.5h-6.2V40h-1.8v2.5
	h-6.2V40h-1.8v2.5H10V40H8.2v2.5H2.6V28.8l7.7-7.8c0.8,0.7,1.8,1.2,3,1.2c0.9,0,1.8-0.3,2.5-0.8l5.8,7.6c-0.8,0.8-1.2,1.9-1.2,3
	c0,2.4,2,4.4,4.4,4.4s4.4-2,4.4-4.4c0-0.8-0.2-1.5-0.6-2.2l6.1-6c0.7,0.5,1.5,0.7,2.4,0.7c1.3,0,2.4-0.5,3.2-1.4l7.1,4.5v14.8H41.8z
	"/>
</svg>
