<?xml version="1.0" encoding="utf-8"?>
<!-- Generator: Adobe Illustrator 21.1.0, SVG Export Plug-In . SVG Version: 6.00 Build 0)  -->
<svg version="1.1" id="Layer_1" xmlns="http://www.w3.org/2000/svg" xmlns:xlink="http://www.w3.org/1999/xlink" x="0px" y="0px"
	 viewBox="0 0 50 50" style="enable-background:new 0 0 50 50;" xml:space="preserve">
<g>
	<g>
		<path style="fill:#ffffff;" d="M47.1,23.5H45v-9.9c0-2.4-1.9-4.3-4.3-4.3h-2.9l-3-5.3c-0.5-0.8-1.3-1.3-2.3-1.3
			c-0.4,0-0.9,0.1-1.3,0.3L19.9,9.3H7.2c-2.4,0-4.3,1.9-4.3,4.3v29.5c0,2.4,1.9,4.3,4.3,4.3h33.5c2.4,0,4.3-1.9,4.3-4.3v-8.7h2.1
			V23.5z M40.7,11c1.3,0,2.4,1,2.5,2.3H40L38.7,11H40.7z M32.2,4.5c0.4-0.2,0.9-0.1,1.2,0.3l4.7,8.5H16.2L32.2,4.5z M43.3,43.1
			c0,1.4-1.2,2.6-2.6,2.6H7.2c-1.4,0-2.6-1.2-2.6-2.6V13.6c0-1.4,1.2-2.6,2.6-2.6h9.7l-4.1,2.3h-5c-0.5,0-0.9,0.4-0.9,0.9
			c0,0.5,0.4,0.9,0.9,0.9h35.6v8.4H37c-2.9,0-5.3,2.4-5.3,5.3v0.4c0,2.9,2.4,5.3,5.3,5.3h6.3V43.1z M45.4,32.7H37
			c-2,0-3.6-1.6-3.6-3.6v-0.4c0-2,1.6-3.6,3.6-3.6h8.4V32.7z M39.6,29c0,1-0.8,1.9-1.9,1.9c-1,0-1.9-0.8-1.9-1.9
			c0-1,0.8-1.9,1.9-1.9C38.8,27.1,39.6,28,39.6,29L39.6,29z M39.6,29"/>
	</g>
</g>
</svg>
