<?xml version="1.0" encoding="utf-8"?>
<!-- Generator: Adobe Illustrator 21.1.0, SVG Export Plug-In . SVG Version: 6.00 Build 0)  -->
<svg version="1.1" id="Layer_1" xmlns="http://www.w3.org/2000/svg" xmlns:xlink="http://www.w3.org/1999/xlink" x="0px" y="0px"
	 viewBox="0 0 50 50" style="enable-background:new 0 0 50 50;" xml:space="preserve">
<g>
	<path style="fill:#ffffff;" d="M45.9,28c-0.5,0-1,0.1-1.5,0.3c-0.7-0.9-1.7-1.4-2.9-1.4c-0.6,0-1.2,0.2-1.7,0.4l-1.6,0.9
		c-0.7-0.8-1.7-1.3-2.8-1.3c-0.6,0-1.2,0.2-1.7,0.4l-5.6,3.4c-1.4-0.4-7.3-2.1-8.4-2.4c-0.6-0.1-1.1-0.3-1.5-0.3
		c-0.2,0-0.4-0.1-0.5-0.1c-0.2,0-0.3,0-0.5,0c-0.1,0-0.2,0-0.3,0c-0.4,0.1-1,0.2-1.7,0.4c-1.5,0.3-3.3,0.8-4.3,1.1v-1.5
		c0-1.2-1-2.2-2.2-2.2h-6c-1.2,0-2.2,1-2.2,2.2v16.9c0,1.2,1,2.2,2.2,2.2h6c1.2,0,2.2-1,2.2-2.2v-1.3c1.3,0.3,4.2,0.9,7.2,1.5
		c2.1,0.4,4.2,0.8,6,1.2c0.9,0.2,1.7,0.3,2.3,0.4c0.7,0.1,1.1,0.2,1.5,0.2c0.3,0,0.6-0.1,0.9-0.1c0.5-0.2,1.2-0.4,1.9-0.8
		c2.5-1.2,6-3.5,9.4-5.7c3.4-2.2,6.5-4.4,8-5.5c1-0.7,1.5-1.8,1.5-3C49.6,29.6,47.9,28,45.9,28z M8.7,45.3h-6
		c-0.3,0-0.5-0.3-0.5-0.5V27.8c0-0.3,0.3-0.5,0.5-0.5h6c0.3,0,0.5,0.3,0.5,0.5v16.9h0C9.2,45.1,9,45.3,8.7,45.3z M47.1,33.3
		c-1.9,1.3-6.1,4.3-10.2,6.9c-2,1.3-4.1,2.6-5.7,3.5c-0.8,0.4-1.6,0.8-2.1,1.1c-0.3,0.1-0.6,0.2-0.8,0.3C28.1,45,27.9,45,27.9,45
		c-0.2,0-0.7,0-1.3-0.1c-2.2-0.3-6.2-1.1-9.7-1.8c-1.7-0.4-3.4-0.7-4.5-1c-0.7-0.1-1.2-0.3-1.5-0.3V31.1c0.2,0,0.4-0.1,0.6-0.2
		c0.9-0.2,2.2-0.6,3.4-0.9c0.6-0.1,1.2-0.3,1.6-0.4c0.2,0,0.4-0.1,0.6-0.1c0.1,0,0.3,0,0.3,0c0,0,0.1,0,0.2,0
		c0.5,0.1,1.4,0.3,2.5,0.6c3.4,0.9,8.8,2.5,11,3.2c0.8,0.2,1.4,0.6,1.9,1c0.2,0.2,0.4,0.4,0.5,0.7c0.1,0.2,0.2,0.5,0.2,0.8
		c0,0.6-0.3,1.2-0.7,1.6c-0.4,0.4-1,0.7-1.6,0.7l-2.1-0.2l-7.3-0.9c-0.5-0.1-0.9,0.3-0.9,0.7c-0.1,0.4,0.3,0.9,0.7,0.9l7.3,0.9
		l2.3,0.2h0c2.2,0,4-1.8,4-4c0-0.6-0.1-1.1-0.3-1.5c-0.3-0.7-0.9-1.2-1.4-1.6c-0.6-0.4-1.3-0.7-2-0.9c-0.3-0.1-0.7-0.2-1.2-0.4
		l4.2-2.6c0.3-0.1,0.6-0.2,0.9-0.2c0.5,0,1,0.2,1.4,0.5l-2.2,1.3c-0.4,0.2-0.5,0.7-0.3,1.1c0.2,0.4,0.7,0.5,1.1,0.3l5.1-3
		c0.3-0.1,0.6-0.2,0.9-0.2c0.6,0,1.1,0.2,1.4,0.6l-6,3.5c-0.4,0.2-0.5,0.7-0.3,1.1c0.2,0.4,0.7,0.5,1.1,0.3l7.2-4.2
		c0.3-0.1,0.6-0.2,0.9-0.2c0.6,0,1.1,0.2,1.4,0.6c0.4,0.4,0.6,0.9,0.6,1.4C47.9,32.3,47.6,32.9,47.1,33.3z"/>
	<path style="fill:#ffffff;" d="M22.5,23.7c1.2,0.8,2.5,1.2,3.9,1.2c0.5,0,0.9,0,1.4-0.1c3.8-0.8,6.3-4.5,5.5-8.3
		c-0.4-1.8-1.4-3.4-3-4.5c-1.6-1-3.5-1.4-5.3-1c-1.8,0.4-3.4,1.4-4.5,3c-1,1.6-1.4,3.5-1,5.3C19.9,21.1,21,22.7,22.5,23.7z M22,14.9
		c0.8-1.2,2-2,3.4-2.3c0.4-0.1,0.7-0.1,1.1-0.1c1,0,2,0.3,2.9,0.9c1.2,0.8,2,2,2.3,3.4c0.6,2.9-1.3,5.7-4.2,6.3
		c-1.4,0.3-2.8,0-4-0.8c-1.2-0.8-2-2-2.3-3.4C20.9,17.5,21.2,16.1,22,14.9z"/>
	<path style="fill:#ffffff;" d="M35.3,11.3c0.7,0.5,1.6,0.8,2.5,0.8c0.3,0,0.6,0,0.9-0.1c2.4-0.5,4-2.9,3.5-5.3
		c-0.2-1.2-0.9-2.2-1.9-2.9s-2.2-0.9-3.4-0.7c-1.2,0.2-2.2,0.9-2.9,1.9s-0.9,2.2-0.7,3.4C33.6,9.6,34.3,10.6,35.3,11.3z M35.5,6
		c0.4-0.6,1-1,1.7-1.2c0.2,0,0.4-0.1,0.5-0.1c0.5,0,1.1,0.2,1.5,0.5c0.6,0.4,1,1,1.2,1.7c0.1,0.7,0,1.5-0.4,2.1s-1,1-1.7,1.2
		c-0.7,0.1-1.5,0-2.1-0.4c-0.6-0.4-1-1-1.2-1.7C35,7.4,35.1,6.6,35.5,6z"/>
</g>
</svg>
