<svg xmlns="http://www.w3.org/2000/svg" viewBox="0 0 259.1 220.7" enable-background="new 0 0 259.1 220.7"><style type="text/css">.st0{font-family:&apos;ProximaNova-BoldIt&apos;;} .st1{font-size:42.8555px;}</style><path d="M122.9 106.6c11.4 25.7 28.8 48.6 50.7 66.4 24.2 19.7 52.6 30.4 81.9 40-.2-1.5-.4-3-.6-4.6-8.4 3.8-18 3.4-26.2 7.9-2.4 1.4-.8 5.5 1.9 4.6l26.3-8.5c1.4-.5 2.5-2.3 1.5-3.7-5.7-8-8.3-17.3-10.7-26.7-.8-3.1-5.6-1.8-4.8 1.3 2.5 9.8 5.2 19.6 11.2 27.9.5-1.2 1-2.4 1.5-3.7l-26.3 8.5c.6 1.5 1.3 3 1.9 4.6 8.1-4.5 17.8-4.1 26.2-7.9 2.1-1 1.3-4-.6-4.6-29-9.5-57.1-20-80.9-39.7-21-17.4-37.7-39.5-48.7-64.4-1.3-2.8-5.6-.3-4.3 2.6z"/><text transform="matrix(.944 -.33 .33 .944 3.384 75.668)" class="st0 st1">MINING</text><text transform="matrix(.944 -.33 .33 .944 20.336 124.195)" class="st0 st1">TUTORIAL</text></svg>