<svg xmlns="http://www.w3.org/2000/svg" viewBox="0 0 512 512"><path fill="#39468a" d="M504.5 482H482V37.5a7.5 7.5 0 0 0-7.5-7.5h-83a7.5 7.5 0 0 0-7.5 7.5v422a7.5 7.5 0 0 0 15 0V45h68v437h-98V150.5a7.5 7.5 0 0 0-7.5-7.5h-83a7.5 7.5 0 0 0-7.5 7.5v309a7.5 7.5 0 0 0 15 0V158h68v324h-98V263.5a7.5 7.5 0 0 0-7.5-7.5h-83a7.5 7.5 0 0 0-7.5 7.5v196a7.5 7.5 0 0 0 15 0V271h68v211h-98V376.5a7.5 7.5 0 0 0-7.5-7.5h-83a7.5 7.5 0 0 0-7.5 7.5v83a7.5 7.5 0 0 0 15 0V384h68v98H30V7.5a7.5 7.5 0 0 0-15 0V30H7.5a7.5 7.5 0 0 0 0 15H15v98H7.5a7.5 7.5 0 0 0 0 15H15v98H7.5a7.5 7.5 0 0 0 0 15H15v98H7.5a7.5 7.5 0 0 0 0 15H15v98H7.5a7.5 7.5 0 0 0 0 15H15v7.5a7.5 7.5 0 0 0 15 0V497h98v7.5a7.5 7.5 0 0 0 15 0V497h98v7.5a7.5 7.5 0 0 0 15 0V497h98v7.5a7.5 7.5 0 0 0 15 0V497h98v7.5a7.5 7.5 0 0 0 15 0V497h22.5a7.5 7.5 0 0 0 0-15z"/></svg>