<svg xmlns="http://www.w3.org/2000/svg" viewBox="0 0 512 512"><path fill="#39468a" d="M509.8 315.6l-49.2-49.2c.5-6.2.8-12.5.8-18.8 0-62.7-24-121.7-67.5-166.1-43.6-44.4-101.5-68.9-163.2-68.9S111.1 37.1 67.5 81.5C24 125.9 0 184.9 0 247.6s24 121.7 67.5 166.1c27.6 28.1 61 48.2 97.4 59.2v13.9c0 6.9 5.6 12.5 12.5 12.5H224c6.9 0 12.5-5.6 12.5-12.5v-4.4c3.8-.1 7.5-.3 11.3-.6v5c0 6.9 5.6 12.5 12.5 12.5H307c6.9 0 12.5-5.6 12.5-12.5v-22.3c3.8-1.6 7.6-3.3 11.3-5.2v27.4c0 6.9 5.6 12.5 12.5 12.5h46.6c6.9 0 12.5-5.6 12.5-12.5v-82.3c4.8-5.4 9.4-11.1 13.6-16.9v104.2c0 4.1 3.4 7.5 7.5 7.5h56.6c4.1 0 7.5-3.4 7.5-7.5v-49.8c0-4.1-3.4-7.5-7.5-7.5s-7.5 3.4-7.5 7.5v42.3H431V320.9c0-4.1-3.4-7.5-7.5-7.5h-6.3l34.6-34.7 34.7 34.7h-6.3c-4.1 0-7.5 3.4-7.5 7.5V410c0 4.1 3.4 7.5 7.5 7.5s7.5-3.4 7.5-7.5v-81.6h16.9c3 0 5.8-1.8 6.9-4.6 1.1-2.8.5-6-1.7-8.2zm-173.6-75.5c-.2-11-.6-21.9-1.4-32.7-.3-4.1-3.9-7.2-8-6.9s-7.2 3.9-6.9 8c.8 10.4 1.2 20.9 1.4 31.5h-83v-82.9c25.6-.4 50.4-2.5 73.7-6.4 1.3 6.3 2.5 12.7 3.5 19.3.6 4.1 4.5 6.9 8.6 6.2 4.1-.6 6.9-4.5 6.2-8.6-1.1-6.7-2.3-13.2-3.6-19.6 30.8-6.2 58.3-15.4 80.6-27.1 24.1 34.8 37.7 75.8 39.1 119l-110.2.2zM175.7 421c-2.6-4.9-5.1-10-7.5-15.6-6-14-11.2-29.6-15.3-46.4 22.3-3.6 46.1-5.8 70.3-6.1v67.9h-45.7l-1.8.2zM15.1 255.1H71c4.1 0 7.5-3.4 7.5-7.5s-3.4-7.5-7.5-7.5H15.1c1.4-43.2 15-84.3 39.1-119 22.3 11.8 49.8 21 80.6 27.1-5.9 28.5-9.2 59.6-9.6 91.9H109c-4.1 0-7.5 3.4-7.5 7.5s3.4 7.5 7.5 7.5h16.2c.4 32.3 3.7 63.4 9.6 91.9-30.8 6.2-58.3 15.4-80.6 27.1-24.1-34.7-37.7-75.8-39.1-119zM238.2 28.5C250 31 265.4 40.2 281 65.9c11.3 18.7 20.7 42.5 27.5 70.2-22.3 3.6-46 5.8-70.3 6.1V28.5zm-15 0v113.7c-24.3-.4-48-2.5-70.3-6.1 4.2-16.8 9.3-32.3 15.3-46.4 15.2-35 34.9-56.8 55-61.2zm0 128.7v82.9h-83c.4-31.4 3.6-61.6 9.4-89.2 23.2 3.8 48 6 73.6 6.3zm-83 97.9h83V338c-25.6.4-50.4 2.5-73.7 6.4-5.7-27.7-8.9-57.9-9.3-89.3zm98 0h83c-.4 31.4-3.7 61.6-9.4 89.2-23.2-3.8-48-6-73.7-6.4l.1-82.8zm159.9-146.2c-20.5 10.5-46.2 18.8-74.8 24.6-11.2-46-28.8-81.3-50-101.5 41.3 8.4 79.3 29 109.8 60.1 5.4 5.3 10.3 11 15 16.8zM78.2 92c30.5-31 68.5-51.6 109.9-60-12.6 12-23.9 29.5-33.6 51.9-6.5 15-12 31.7-16.4 49.6-28.6-5.7-54.2-14.1-74.8-24.6 4.7-5.8 9.6-11.5 14.9-16.9zm0 311.1c-5.3-5.4-10.3-11-14.9-16.8 20.5-10.5 46.2-18.8 74.8-24.6 4.4 17.9 9.9 34.6 16.4 49.6 3.3 7.7 6.8 14.8 10.5 21.3v24.5c-32.4-10.5-62.1-28.8-86.8-54zm143.4 81.2H180v-48.5h41.6v48.5zm26.3-75.7v54.6c-3.2 1.6-6.4 2.7-9.7 3.4V353c24.3.4 48 2.5 70.3 6.1-3.3 13.1-7.1 25.6-11.6 37.1h-36.6c-6.8-.1-12.4 5.6-12.4 12.4zm56.6 75.7h-41.6v-73.2h41.6v73.2zm15-36.2v-39.5c0-4.9-2.9-9.2-7-11.2 4.1-11.2 7.7-23.1 10.8-35.7 3.5.7 7 1.4 10.4 2.2-1.8 2.2-2.9 5-2.9 8v70.5c-3.8 2.1-7.5 4-11.3 5.7zm67.9 36.2h-41.6V374.5h41.6v109.8zm4.7-160.5c1.2 2.8 3.9 4.6 6.9 4.6h17v31.9c-2.8 4.7-5.7 9.3-8.8 13.8l-4.8-2.5c-.2-6.7-5.7-12.1-12.5-12.1h-16.6c-14.4-5-30-9.2-46.6-12.5 5.9-28.5 9.2-59.6 9.6-91.9h110c-.1 2.8-.2 5.6-.4 8.3l-52.1 52.2c-2.2 2.2-2.9 5.4-1.7 8.2z"/></svg>