<svg xmlns="http://www.w3.org/2000/svg" viewBox="0 0 512 512"><path fill="#39468a" d="M499.5 313.9h-20.6v-42.5c0-37.4-30.1-67.8-67.1-67.8-19 0-36.1 8-48.3 20.9-6-10.5-13.1-20.5-21.4-29.5-2.8-3.1-7.5-3.3-10.6-.5s-3.3 7.5-.5 10.6c9.1 9.9 16.7 21 22.6 32.7-5.6 9.9-8.8 21.4-8.8 33.6v42.5h-20.6c-6.9 0-12.5 5.6-12.5 12.5v80.4h-55.5v-23.5c0-2.2-.5-4.2-1.4-6 .9-1.8 1.4-3.9 1.4-6v-15.1c24.1-12.1 40.6-37.1 40.6-65.8 0-40.6-33-73.7-73.6-73.7s-73.6 33.1-73.6 73.7c0 13.7 3.8 26.5 10.3 37.5h-19.5v-28.4c0-2.2-.5-4.2-1.4-6 .9-1.8 1.4-3.9 1.4-6v-29.9c0-7.5-6-13.5-13.4-13.5H89.8c16.1-35.8 46-63.9 82.9-77.6h101.1c11.6 4.3 22.6 10 32.9 17.2 3.4 2.4 8.1 1.5 10.4-1.8 2.4-3.4 1.5-8.1-1.8-10.4-3.9-2.7-7.9-5.2-11.9-7.6 5-3.1 8.3-8.6 8.3-14.9v-21.5c0-9.6-7.9-17.5-17.5-17.5h-9.5l32-46.5c3.1-4.5 3.7-9.5 1.5-13.6-2.1-4.1-6.5-6.4-12-6.4H140.3c-5.5 0-9.9 2.3-12 6.4-2.2 4.1-1.6 9 1.5 13.6l32 46.5h-9.5c-9.6 0-17.5 7.9-17.5 17.5V149c0 6.3 3.4 11.8 8.4 14.9-31.3 18.1-56 46.3-69.6 80.2H13.4C6 244 0 250.1 0 257.6v29.9c0 2.2.5 4.2 1.4 6-.9 1.8-1.4 3.9-1.4 6v29.9c0 2.2.5 4.2 1.4 6-.9 1.8-1.4 3.9-1.4 6v29.9c0 2.2.5 4.2 1.4 6-.9 1.8-1.4 3.9-1.4 6v29.9c0 2.2.5 4.2 1.4 6-.9 1.8-1.4 3.9-1.4 6V455c0 7.5 6 13.5 13.4 13.5H127c.4 0 .7 0 1.1-.1l1.2.1h113.6c7.4 0 13.4-6.1 13.4-13.5v-29.8c0-1.2-.2-2.3-.5-3.4h55.9v34.3c0 6.9 5.6 12.5 12.5 12.5h175.2c6.9 0 12.5-5.6 12.5-12.5V326.4c.1-6.9-5.5-12.5-12.4-12.5zM301.9 58.4l-35.4 51.5H247l10.9-51.5h44zm-59.4 0l-10.9 51.5h-16.8L204 58.4h38.5zm-97.9 0h44.1l10.9 51.5H180l-35.4-51.5zm5.2 69c0-1.4 1.1-2.5 2.5-2.5h142c1.4 0 2.5 1.1 2.5 2.5v21.5c0 1.4-1.1 2.5-2.5 2.5h-142c-1.4 0-2.5-1.1-2.5-2.5v-21.5zm-24.4 200.5H15V301h110.4v26.9zM15 384.8h56c4.1 0 7.5-3.4 7.5-7.5s-3.4-7.5-7.5-7.5H15v-26.9h110.4v26.9H104c-4.1 0-7.5 3.4-7.5 7.5s3.4 7.5 7.5 7.5h21.4v26.9H15v-26.9zM15 259h110.4v27H15v-27zm0 167.7h110.4v26.9H15v-26.9zm226.3 26.9H140.4v-26.9h100.9v26.9zm0-41.9H140.4v-26.9h100.9v26.9zm0-41.9H140.4v-26.9h100.9v26.9zm-10.6-41.9v-3.4h2.5c11.6 0 21.1-9.5 21.1-21.2s-9.5-21.2-21.1-21.2h-19.9c-3.4 0-6.1-2.8-6.1-6.2 0-3.4 2.7-6.2 6.1-6.2h25.5c4.1 0 7.5-3.4 7.5-7.5s-3.4-7.5-7.5-7.5h-8V249c0-4.1-3.4-7.5-7.5-7.5s-7.5 3.4-7.5 7.5v5.8h-2.5c-11.6 0-21.1 9.5-21.1 21.2s9.5 21.2 21.1 21.2h19.9c3.4 0 6.1 2.8 6.1 6.2 0 3.4-2.7 6.2-6.1 6.2H203c-4.1 0-7.5 3.4-7.5 7.5s3.4 7.5 7.5 7.5h12.7v3.4h-37.5c-8.5-10.2-13.6-23.3-13.6-37.5 0-32.4 26.3-58.7 58.6-58.7s58.6 26.3 58.6 58.7c0 20.2-10.3 38.1-25.8 48.6-1.1-6.3-6.6-11.1-13.2-11.1l-12.1-.1zm129.1-56.5c0-29.1 23.4-52.8 52-52.8s52 23.7 52 52.8v42.5h-14.4V310c0-4.1-3.4-7.5-7.5-7.5s-7.5 3.4-7.5 7.5v3.9h-45.3v-42.5c0-12.7 10.2-23 22.6-23 12.5 0 22.6 10.3 22.6 23v6.6c0 4.1 3.4 7.5 7.5 7.5s7.5-3.4 7.5-7.5v-6.6c0-21-16.9-38-37.6-38-20.8 0-37.6 17.1-37.6 38v42.5h-14.4l.1-42.5zM497 453.6H326.8v-16.3H497v16.3zm0-31.3H326.8v-93.4H497v93.4zM16.9 194.1c11.2 5.8 15.1 9.7 20.9 21 1.8 3.5 5.3 5.7 9.2 5.7s7.5-2.2 9.2-5.7c5.8-11.3 9.7-15.2 20.9-21 3.5-1.8 5.6-5.3 5.6-9.2s-2.2-7.4-5.6-9.2c-11.2-5.8-15.1-9.7-20.9-21-1.8-3.5-5.3-5.6-9.2-5.6s-7.5 2.2-9.2 5.7c-5.8 11.3-9.7 15.2-20.9 21-3.5 1.8-5.6 5.3-5.6 9.2 0 3.8 2.2 7.3 5.6 9.1zm30.2-25.2c4.4 7 9 11.6 16 16-7 4.4-11.6 9-16 16-4.4-7-9-11.6-16-16 7-4.4 11.6-9.1 16-16zm7.7-57.8c9 4.6 11.9 7.6 16.5 16.6 1.7 3.3 5.1 5.4 8.8 5.4 3.7 0 7.1-2.1 8.8-5.4 4.6-9 7.6-12 16.6-16.6a9.8 9.8 0 0 0 5.3-8.7c0-3.7-2-7.1-5.3-8.8C96.5 89 93.6 86 89 77c-1.7-3.3-5.1-5.4-8.8-5.4-3.7 0-7.1 2.1-8.8 5.4-4.6 9-7.6 12-16.5 16.6-3.3 1.7-5.3 5-5.3 8.8-.2 3.6 1.9 7 5.2 8.7zm25.3-19.4c3 4.4 6.2 7.7 10.6 10.7-4.4 3-7.6 6.3-10.6 10.7-3-4.4-6.2-7.7-10.6-10.7 4.4-3.1 7.6-6.3 10.6-10.7zm331.2 307.4c4.1 0 7.5-3.4 7.5-7.5v-24.7c0-4.1-3.4-7.5-7.5-7.5s-7.5 3.4-7.5 7.5v24.7c0 4.2 3.3 7.5 7.5 7.5z"/></svg>