<svg xmlns="http://www.w3.org/2000/svg" viewBox="0 0 901.8 156.4"><style>.st0{fill:#2e4594}</style><path class="st0" d="M219.2 40.3h-13.9v75.9h44.5v-11.8h-30.6zm74.2 0h14v75.9h-14zm112.5.9c-.9.9-1.3 1.3-1.7 2.2l-17.9 46.2c-1.3 3.1-2.2 6.5-3.1 10.5-.4-2.2-.9-3.9-1.7-5.7-.4-1.7-1.3-3.5-1.7-4.8l-17.4-46.2c-.4-.9-.9-1.7-1.7-2.2-.9-.4-1.7-.9-3.1-.9h-11.3l30.5 75.9h12.6l30.5-75.9h-11.3c-1 0-2.3.4-2.7.9zm56.7 75h47.5v-11.3h-33.6V83.5h26.6V72.6h-26.6V51.7h33.6V40.3h-47.5zm107.3-58.4c2.2-2.2 4.8-3.9 7.9-5.2 3.1-1.3 6.1-1.7 10-1.7 3.1 0 5.7.4 7.4.9 2.2.4 3.5 1.3 4.8 2.2s2.2 1.3 3.1 2.2c.9.4 1.7.9 2.6.9.9 0 1.3 0 1.7-.4s.9-.9.9-1.3l4.8-6.5c-3.1-3.1-6.5-5.2-10.9-7-4.4-1.7-9.2-2.6-14.8-2.6s-10.9.9-15.7 3.1c-4.8 1.7-8.7 4.4-12.2 7.9s-6.1 7.4-7.9 12.2c-1.7 4.8-2.6 10-2.6 15.7 0 5.7.9 10.9 2.6 15.7 1.7 4.8 3.9 8.7 7.4 12.2 3.1 3.5 7 6.1 11.3 7.9 4.4 1.7 9.6 3.1 15.3 3.1 6.1 0 11.8-.9 16.1-3.1 4.4-2.2 8.3-4.8 11.3-8.7l-5.7-6.1c-.4-.4-1.3-.9-2.2-.9-.4 0-.9 0-1.3.4s-.9.4-1.3.9l-3.5 2.6s-2.6 1.3-3.9 1.7c-1.3.4-2.6.9-4.4.9s-3.5.4-5.2.4c-3.1 0-6.1-.4-9.2-1.7-2.6-1.3-5.2-3.1-7.4-5.2-2.2-2.2-3.5-5.2-4.8-8.3-1.3-3.5-1.7-7-1.7-11.3 0-3.9.4-7.9 1.7-11.3 1.8-4.4 3.6-7.5 5.8-9.6zm144.3-8.3c-3.5-3.5-7.4-6.1-12.2-8.3-4.8-1.7-10-3.1-15.7-3.1s-10.9.9-15.7 3.1-8.7 4.8-12.2 8.3-6.1 7.4-7.9 12.2-2.6 10-2.6 15.3c0 5.2.9 10.9 2.6 15.3 1.7 4.4 4.4 8.7 7.9 12.2s7.4 6.1 12.2 8.3c4.8 2.2 10 3.1 15.7 3.1s10.9-.9 15.7-3.1 8.7-4.8 12.2-8.3 6.1-7.4 7.9-12.2c1.7-4.8 2.6-10 2.6-15.3 0-5.2-.9-10.9-2.6-15.3-1.8-4.4-4.4-8.7-7.9-12.2zM709 88.3c-1.3 3.5-2.6 6.1-4.8 8.3-2.2 2.2-4.4 3.9-7.4 5.2-3.1 1.3-6.1 1.7-10 1.7s-7-.4-10-1.7c-3.1-1.3-5.7-3.1-7.4-5.2-2.2-2.2-3.5-5.2-4.8-8.3-1.3-3.5-1.7-7-1.7-11.3s.4-7.9 1.7-11.3c1.3-3.5 2.6-6.1 4.8-8.3s4.8-3.9 7.4-5.2c3.1-1.3 6.1-1.7 10-1.7s7 .4 10 1.7c3.1 1.3 5.7 3.1 7.4 5.2 2.2 2.2 3.5 5.2 4.8 8.3s1.7 7 1.7 11.3-.8 8.2-1.7 11.3zm60.6-48h14v75.9h-14zm116.5 45.8v3.5s0 2.2.4 3.5l-39.7-50.6c-.4-.4-.9-.9-.9-1.3l-.9-.9s-.9-.4-1.3-.4h-9.1v75.9h12.2V66.4c0-1.3 0-2.2-.4-3.5l39.7 50.6c.9.9 1.3 1.7 2.2 1.7.9.4 1.7.4 2.6.4h7.4V40.3h-12.2v45.8zM75.7 5.9C35.1 5.9 2.4 38.6 2.4 79.2s32.7 73.3 73.3 73.3S149 119.8 149 79.2 116.3 5.9 75.7 5.9zm0 137.8c-35.8 0-64.5-28.8-64.5-64.5S40 14.6 75.7 14.6s64.5 28.8 64.5 64.5-28.7 64.6-64.5 64.6zm12.2-42.8h8.8V46.4L87.9 53zm-16.5 0h8.7V58.2l-8.7 6.5zm-16.6 0h8.7V70l-8.7 6.5z"/></svg>