<svg xmlns="http://www.w3.org/2000/svg" viewBox="0 0 381 65"><style>.st0{fill:url(#SVGID_1_)}.st1{fill:url(#SVGID_2_)}.st2{fill:url(#SVGID_3_)}.st3{fill:url(#SVGID_4_)}.st4{fill:url(#SVGID_5_)}.st5{fill:url(#SVGID_6_)}.st6{fill:url(#SVGID_7_)}</style><linearGradient id="SVGID_1_" gradientUnits="userSpaceOnUse" x1="27.8" y1="-431.367" x2="27.8" y2="-368.167" gradientTransform="matrix(1 0 0 -1 0 -367.333)"><stop offset="0" stop-color="#2e4594"/><stop offset="1" stop-color="#2e4594"/></linearGradient><path class="st0" d="M2.5.8h27.6c15.3 0 21.1 8 21.1 16.2 0 7.1-3.8 11.8-8 13.7 4.3 1.6 9.9 6.1 9.9 14.4 0 10.8-8.5 18.9-21.9 18.9H2.7V.8h-.2zm26.1 24.9c6.5 0 9.2-2.9 9.2-7.4 0-4.6-3.5-7-8.8-7H16v14.4h12.6zM15.9 53.4h12.3c7.4 0 10.7-3.1 10.7-8.8 0-5.1-3.3-8.3-10.8-8.3H15.8v17.1h.1z"/><linearGradient id="SVGID_2_" gradientUnits="userSpaceOnUse" x1="70.95" y1="-431.367" x2="70.95" y2="-368.167" gradientTransform="matrix(1 0 0 -1 0 -367.333)"><stop offset="0" stop-color="#2e4594"/><stop offset="1" stop-color="#2e4594"/></linearGradient><path class="st1" d="M77.8.8V64H64.1V.8h13.7z"/><linearGradient id="SVGID_3_" gradientUnits="userSpaceOnUse" x1="113.6" y1="-431.367" x2="113.6" y2="-368.167" gradientTransform="matrix(1 0 0 -1 0 -367.333)"><stop offset="0" stop-color="#2e4594"/><stop offset="1" stop-color="#2e4594"/></linearGradient><path class="st2" d="M106.8 12H87.6V.8h52V12h-19.1v52h-13.7V12z"/><linearGradient id="SVGID_4_" gradientUnits="userSpaceOnUse" x1="172.6" y1="-431.367" x2="172.6" y2="-368.167" gradientTransform="matrix(1 0 0 -1 0 -367.333)"><stop offset="0" stop-color="#2e4594"/><stop offset="1" stop-color="#2e4594"/></linearGradient><path class="st3" d="M165.8 12h-19.2V.8h52V12h-19.1v52h-13.7V12z"/><linearGradient id="SVGID_5_" gradientUnits="userSpaceOnUse" x1="232" y1="-431.367" x2="232" y2="-368.167" gradientTransform="matrix(1 0 0 -1 0 -367.333)"><stop offset="0" stop-color="#2e4594"/><stop offset="1" stop-color="#2e4594"/></linearGradient><path class="st4" d="M220.9 38.7V64h-13.4V.8h27.8c13.8 0 21.2 7.6 21.2 17.4 0 8.5-4.6 13.1-9.2 15 3.1 1.2 7.9 4.4 7.9 15.7V52c0 4.3 0 9.1.9 12h-13c-1.1-2.8-1.3-7.5-1.3-14.2v-.9c0-6.9-1.7-10.2-11.9-10.2h-9zm0-10.9h11.5c7.5 0 10.4-2.8 10.4-8.1 0-5.1-3.4-8-10-8H221v16.1h-.1z"/><linearGradient id="SVGID_6_" gradientUnits="userSpaceOnUse" x1="292.5" y1="-431.367" x2="292.5" y2="-368.167" gradientTransform="matrix(1 0 0 -1 0 -367.333)"><stop offset="0" stop-color="#2e4594"/><stop offset="1" stop-color="#2e4594"/></linearGradient><path class="st5" d="M312.7 36.7h-30.2v16.1h33.3L314.2 64h-45V.8H314V12h-31.6v13.5h30.2v11.2h.1z"/><linearGradient id="SVGID_7_" gradientUnits="userSpaceOnUse" x1="351" y1="-431.367" x2="351" y2="-368.167" gradientTransform="matrix(1 0 0 -1 0 -367.333)"><stop offset="0" stop-color="#2e4594"/><stop offset="1" stop-color="#2e4594"/></linearGradient><path class="st6" d="M364.2 64l-13.5-22.3h-.1L336.8 64H322l21-31.8L322.6.8h15.9l12.8 21h.1l13.2-21H379l-20.3 30.1L380 64h-15.8z"/></svg>