<svg xmlns="http://www.w3.org/2000/svg" viewBox="0 0 668.5 289.7"><style>.st0{fill:#2e4594}.st1{font-family:&apos;ProximaNova-Extrabld&apos;}.st2{font-size:125.2731px}.st3{letter-spacing:-2}.st4{fill:#2e4594}.st5{font-size:126.3824px}.st6{letter-spacing:-1.2}.st10,.st11,.st12,.st13,.st14,.st15,.st16,.st17,.st18,.st19,.st20,.st21,.st7,.st8,.st9{fill:#2e4594}</style><g id="TEXT"><text transform="matrix(.984 0 0 1 178.751 283.118)" class="st0 st1 st2 st3">BTC</text><path class="st4" d="M140.5 203.7h19.3v19.5h7.5v19.5h-7l-.8 40.8h-19v-41.3h-7.2v-18.5h7.2zM98 283.5h18v-54.3l-9 4.3-9-4.3z"/><circle class="st4" cx="107" cy="211" r="10.8"/><text transform="matrix(.862 0 0 1 0 283.458)" class="st4 st1 st5 st6">H</text></g><g id="BULL"><path class="st7" d="M431 168.2l65.5 115.3-6.7-113.8z"/><path class="st8" d="M489.8 169.7l30.5 13.3-23.8 100.5z"/><path class="st9" d="M522.5 114.5l-2.2 68.5-30.5-13.3z"/><path class="st10" d="M520.3 183l60.9 62-59.6-133.3z"/><path class="st11" d="M456.3 114.5L549.5 69l-79.7-10.5-13.5 56"/><path class="st12" d="M360.8 127.5l95.5-13 13.5-56-109 69 95.5-13"/><path class="st13" d="M360.8 127.5l70.2 40.7 25.3-53.7z"/><path class="st14" d="M431 168.2l25.3-53.7 33.5 55.2z"/><path class="st15" d="M456.3 114.5h66.2l-32.7 55.2z"/><path class="st16" d="M456.3 114.5L549.5 69l-27 45.5z"/><path class="st15" d="M522.7 115.3l57.7 12.9.8 116.8-58.5-131 57.6 14.2"/><path class="st8" d="M625.8 218L581 245.5l32-35.5z"/><path class="st17" d="M580.3 129l.7 116.5 32-35.5z"/><path class="st18" d="M613 210l16.3-2-49-79 32.7 81-32 35.5z"/><path class="st11" d="M590.4 145.4H613l16.3 62.6zM557 55.5L586.5 93l-64 21.5z"/><path class="st19" d="M586.5 93l-6.2 36-58.7-14.2z"/><path class="st20" d="M616.8 142.1L586.5 93l-6.2 36z"/><path class="st21" d="M586.5 93l3.9-55.5-33.4 18z"/><path class="st11" d="M636.3 33.7L586.5 93l3.9-55.5z"/><path class="st12" d="M658.8 36l-49 29.1 26.5-31.4z"/><path class="st11" d="M636.3 33.7c.2-1.2 28.2-34.7 28.2-34.7l-5.8 37-22.4-2.3z"/></g></svg>