<svg id="Слой_1" data-name="Слой 1" xmlns="http://www.w3.org/2000/svg" viewBox="0 0 678.2 146.45"><defs><style>.cls-1{fill:#fff}.cls-2{fill:#d97043}</style></defs><title>Монтажная область 1</title><path class="cls-1" d="M236.63 102.2c-5.82 1.94-16 3.08-22.7 3.08h-5.36V57.6a59.73 59.73 0 0 0-8.44 1.83V46c5.93-1.94 16.08-3.08 22.7-3.08h5.36v47.64a46.6 46.6 0 0 0 8.44-1.82zm-28.06-82.47h19.62v16.08h-19.62zm71.52 77.11l-4.45 3.08c-5.7 3.88-10.72 6.27-17.45 6.27-12.89 0-20-7.64-20-20.53V73.23c0-18.71 14.26-30.34 33-30.34h28.52v83.84h-19.62zm0-14.26V59h-7.19c-9.81 0-15.06 4.45-15.06 14.26v8.9c0 4.9 2.17 7.07 7.07 7.07 3.54 0 8-2.17 11.64-4.45zm45.74-8.44c0-22.36 11.63-32.17 32.05-32.17 21.45 0 32.17 9.81 32.17 32.17 0 24-10.72 32.05-32.17 32.05-20.41 0-32.05-8.1-32.05-32.05zm44.6 0C370.44 63 366.78 59 357.88 59s-12.43 4-12.43 15.17S349 89.2 357.88 89.2s12.56-4 12.56-15.06zM389.71 46c5.93-1.94 16.08-3.08 22.7-3.08h5.36v8.44l4.45-3.08c5.7-4 10.72-6.27 17.45-6.27 12.89 0 20 7.64 20 20.53v12.4c0 18.71-14.26 30.34-33 30.34h-8.9v21.45h-19.62V57.6a59.75 59.75 0 0 0-8.44 1.83zm28.06 19.62V89.2h7.3c9.69 0 15.06-4.45 15.06-14.26V66c0-4.9-2.28-7.07-7.19-7.07-3.54 0-7.87 2.17-11.64 4.45z"/><path class="cls-1" d="M505.26 103.91a38.52 38.52 0 0 1-12.66 2.28c-14.49 0-24.75-7.76-24.75-24.07V59H458V42.88h9.81v-16h19.62v16h16V59h-16v18.68c0 9 3.42 12.43 9.81 12.43a19.58 19.58 0 0 0 8-2.17z"/><path class="cls-1" d="M537 102.2c-5.81 1.94-16 3.08-22.7 3.08h-5.36v-46.4c-3.65.23-5.48.09-8.44.09V42.88c8.73-.05 16.08 0 22.7 0h5.36v47.68a46.65 46.65 0 0 0 8.44-1.82zm-28.08-82.47h19.62v16.08h-19.62zm27.83 54.41c0-22.36 11.63-32.14 32.05-32.14 21.45 0 32.2 9.78 32.2 32.14 0 24-10.72 32.05-32.17 32.05-20.45 0-32.08-8.1-32.08-32.05zm44.6 0C581.35 63 577.7 59 568.8 59s-12.43 4-12.43 15.17 3.54 15.03 12.43 15.03 12.55-4 12.55-15.06z"/><path class="cls-1" d="M678.2 102.2c-5.93 1.94-16.08 3.08-22.7 3.08h-5.36V67c0-4.91-.91-8-5.82-8-3.54 0-8 2.74-12.09 5.36l-3.53 2.17v38.78h-19.63V57.6c-3.2.46-16.39 3.7-18.67 4.38V48.52c5.93-1.94 26.32-5.64 32.93-5.64h5.36v9.47l2.73-1.83c7.08-5.13 12.44-8.52 20.43-8.52 12.09 0 17.91 7.64 17.91 19.62v29a51.42 51.42 0 0 0 8.44-1.82z"/><circle class="cls-2" cx="73.23" cy="73.23" r="73.23"/><path class="cls-1" d="M49.38 104.1a9.55 9.55 0 0 1-9.55 9.55 9.55 9.55 0 0 1-9.55-9.55V68.86a9.55 9.55 0 0 1 9.55-9.55 9.55 9.55 0 0 1 9.55 9.55zm65.44-.03a10.57 10.57 0 0 1-10.57 10.57 10.57 10.57 0 0 1-10.57-10.57V35.82a10.57 10.57 0 0 1 10.57-10.57 10.57 10.57 0 0 1 10.57 10.57zm-33.96 1.41a9.16 9.16 0 0 1-9.16 9.16 9.16 9.16 0 0 1-9.16-9.16V53.9a9.16 9.16 0 0 1 9.16-9.16 9.16 9.16 0 0 1 9.16 9.16z"/></svg>