<svg xmlns="http://www.w3.org/2000/svg" viewBox="0 0 852.3 173.8"><g fill="#00e0c7"><path d="M143 153.2l-34.4-34.4-16.3 6.3 37.4 37.4c4.7-2.7 9.1-5.8 13.3-9.3zm19.5-23.6l-37.4-37.4-6.3 16.3 34.4 34.4c3.5-4.1 6.6-8.5 9.3-13.3z"/><path d="M57.7 115.2c-15.6-15.6-15.6-41 0-56.6 15.6-15.6 41-15.6 56.6 0l55.2 55.2c2.8-8.5 4.3-17.5 4.3-26.9C173.8 39 134.8 0 86.9 0S0 39 0 86.9c0 47.9 39 86.9 86.9 86.9 8.9 0 17.4-1.4 25.5-3.9l-54.7-54.7z"/></g><path d="M284.7 10.8c16.4 0 28.6 11.4 28.6 27.8 0 16.3-12.2 27.8-28.6 27.8S256 54.9 256 38.6s12.3-27.8 28.7-27.8zm0 12.3c-8.9 0-14.6 6.8-14.6 15.5s5.7 15.5 14.6 15.5c8.9 0 14.6-6.8 14.6-15.5 0-8.8-5.8-15.5-14.6-15.5zm36-11.4h26.9c12.1 0 18.7 8.1 18.7 17.9 0 9.7-6.6 17.6-18.7 17.6h-13v18.2h-13.8V11.7zm25.1 11.7h-11.2v12.1h11.2c3.7 0 6.4-2.3 6.4-6s-2.7-6.1-6.4-6.1zm27.1-11.7h39.4v11.7h-25.5v8.9h24.9V44h-24.9v9.7h25.5v11.7h-39.4V11.7zM434.5 33v32.4h-13.8V11.7h14.2l21.7 30.9V11.7h13.9v53.7h-13.4L434.5 33zm79.1-9.2h-15V11.7h43.9v12.1h-15v41.6h-13.8V23.8zm56.8 23.4h-7.1v18.2h-13.8V11.7h26.9c11.9 0 18.7 7.9 18.7 17.9 0 9.3-5.7 14.3-10.7 16.1l10.9 19.7h-15.9l-9-18.2zm3.8-23.8h-10.9v12.1h10.9c3.6 0 6.7-2.3 6.7-6 0-3.8-3.1-6.1-6.7-6.1zm63.2 33.9h-22.3l-2.7 8.1h-15l20.2-53.7H635l20.3 53.7h-15l-2.9-8.1zm-18.7-11.7h15l-7.6-21.8-7.4 21.8zm40.8-33.9H682c16.9 0 29.1 10.1 29.1 26.8s-12.2 26.9-29 26.9h-22.6V11.7zM682 53.3c9.4 0 14.9-6.8 14.9-14.8 0-8.3-5-14.7-14.8-14.7h-8.8v29.5h8.7zm36.4-41.6h13.8v53.7h-13.8V11.7zM756.2 33v32.4h-13.8V11.7h14.2l21.7 30.9V11.7h13.9v53.7h-13.4L756.2 33zm72.4-22.2c11.8 0 19 5.8 22.9 12.5l-11.6 6.1c-2.2-3.5-6.3-6.4-11.3-6.4-8.8 0-15 6.8-15 15.5 0 8.8 6.2 15.5 15 15.5 4.2 0 8-1.4 10.1-3.2v-4.5h-12.3V34.9h25.9v21c-5.8 6.4-13.6 10.5-23.7 10.5-16 0-29.1-10.7-29.1-27.8 0-17 13.1-27.8 29.1-27.8zM272.5 129.5V162h-13.8v-53.7h14.2l21.7 30.9v-30.9h13.9V162h-13.4l-22.6-32.5zm46.1-21.2H358V120h-25.5v8.9h24.9v11.7h-24.9v9.7H358V162h-39.4v-53.7zm59.8 12.1h-15v-12.1h43.9v12.1h-15V162h-13.8v-41.6zm68.7 7.9l-8.1 33.6h-14.6L409 108.2h15.5l8.1 35.8 9.2-35.8h10.6l9.2 35.8 8-35.8h15.6L469.8 162h-14.6l-8.1-33.7zm68.9-20.9c16.4 0 28.6 11.4 28.6 27.8 0 16.3-12.2 27.8-28.6 27.8-16.4 0-28.7-11.4-28.7-27.8-.1-16.4 12.2-27.8 28.7-27.8zm0 12.2c-8.9 0-14.6 6.8-14.6 15.5s5.7 15.5 14.6 15.5c8.9 0 14.6-6.8 14.6-15.5-.1-8.7-5.8-15.5-14.6-15.5zm56.9 24.2h-7.1V162H552v-53.7h26.9c11.9 0 18.7 7.9 18.7 17.9 0 9.3-5.7 14.3-10.7 16.1l10.9 19.7h-15.9l-9-18.2zm3.9-23.8h-10.9v12h10.9c3.6 0 6.7-2.3 6.7-6s-3.1-6-6.7-6zm46.3 21.8l-3.6 4.5V162h-13.8v-53.7h13.8v22l16.5-22h17l-20.8 25.1 22 28.6h-17l-14.1-20.2z" fill="#fff"/></svg>