<svg xmlns="http://www.w3.org/2000/svg" viewBox="0 0 50 50"><path d="M45.9 28c-.5 0-1 .1-1.5.3-.7-.9-1.7-1.4-2.9-1.4-.6 0-1.2.2-1.7.4l-1.6.9c-.7-.8-1.7-1.3-2.8-1.3-.6 0-1.2.2-1.7.4l-5.6 3.4c-1.4-.4-7.3-2.1-8.4-2.4-.6-.1-1.1-.3-1.5-.3-.2 0-.4-.1-.5-.1h-.8c-.4.1-1 .2-1.7.4-1.5.3-3.3.8-4.3 1.1v-1.5c0-1.2-1-2.2-2.2-2.2h-6c-1.2 0-2.2 1-2.2 2.2v16.9c0 1.2 1 2.2 2.2 2.2h6c1.2 0 2.2-1 2.2-2.2v-1.3c1.3.3 4.2.9 7.2 1.5 2.1.4 4.2.8 6 1.2.9.2 1.7.3 2.3.4.7.1 1.1.2 1.5.2.3 0 .6-.1.9-.1.5-.2 1.2-.4 1.9-.8 2.5-1.2 6-3.5 9.4-5.7 3.4-2.2 6.5-4.4 8-5.5 1-.7 1.5-1.8 1.5-3 0-2.1-1.7-3.7-3.7-3.7zM8.7 45.3h-6c-.3 0-.5-.3-.5-.5v-17c0-.3.3-.5.5-.5h6c.3 0 .5.3.5.5v16.9c0 .4-.2.6-.5.6zm38.4-12c-1.9 1.3-6.1 4.3-10.2 6.9-2 1.3-4.1 2.6-5.7 3.5-.8.4-1.6.8-2.1 1.1-.3.1-.6.2-.8.3-.2-.1-.4-.1-.4-.1-.2 0-.7 0-1.3-.1-2.2-.3-6.2-1.1-9.7-1.8-1.7-.4-3.4-.7-4.5-1-.7-.1-1.2-.3-1.5-.3V31.1c.2 0 .4-.1.6-.2.9-.2 2.2-.6 3.4-.9.6-.1 1.2-.3 1.6-.4.2 0 .4-.1.6-.1h.5c.5.1 1.4.3 2.5.6 3.4.9 8.8 2.5 11 3.2.8.2 1.4.6 1.9 1 .2.2.4.4.5.7.1.2.2.5.2.8 0 .6-.3 1.2-.7 1.6-.4.4-1 .7-1.6.7l-2.1-.2L22 37c-.5-.1-.9.3-.9.7-.1.4.3.9.7.9l7.3.9 2.3.2c2.2 0 4-1.8 4-4 0-.6-.1-1.1-.3-1.5-.3-.7-.9-1.2-1.4-1.6-.6-.4-1.3-.7-2-.9-.3-.1-.7-.2-1.2-.4l4.2-2.6c.3-.1.6-.2.9-.2.5 0 1 .2 1.4.5l-2.2 1.3c-.4.2-.5.7-.3 1.1.2.4.7.5 1.1.3l5.1-3c.3-.1.6-.2.9-.2.6 0 1.1.2 1.4.6l-6 3.5c-.4.2-.5.7-.3 1.1.2.4.7.5 1.1.3l7.2-4.2c.3-.1.6-.2.9-.2.6 0 1.1.2 1.4.6.4.4.6.9.6 1.4 0 .7-.3 1.3-.8 1.7zm-24.6-9.6c1.2.8 2.5 1.2 3.9 1.2.5 0 .9 0 1.4-.1 3.8-.8 6.3-4.5 5.5-8.3-.4-1.8-1.4-3.4-3-4.5-1.6-1-3.5-1.4-5.3-1-1.8.4-3.4 1.4-4.5 3-1 1.6-1.4 3.5-1 5.3.4 1.8 1.5 3.4 3 4.4zm-.5-8.8c.8-1.2 2-2 3.4-2.3.4-.1.7-.1 1.1-.1 1 0 2 .3 2.9.9 1.2.8 2 2 2.3 3.4.6 2.9-1.3 5.7-4.2 6.3-1.4.3-2.8 0-4-.8-1.2-.8-2-2-2.3-3.4-.3-1.4 0-2.8.8-4zm13.3-3.6c.7.5 1.6.8 2.5.8.3 0 .6 0 .9-.1 2.4-.5 4-2.9 3.5-5.3-.2-1.2-.9-2.2-1.9-2.9s-2.2-.9-3.4-.7c-1.2.2-2.2.9-2.9 1.9s-.9 2.2-.7 3.4c.3 1.2 1 2.2 2 2.9zm.2-5.3c.4-.6 1-1 1.7-1.2.2 0 .4-.1.5-.1.5 0 1.1.2 1.5.5.6.4 1 1 1.2 1.7.1.7 0 1.5-.4 2.1s-1 1-1.7 1.2c-.7.1-1.5 0-2.1-.4-.6-.4-1-1-1.2-1.7 0-.7.1-1.5.5-2.1z" fill="#fff"/></svg>