<svg xmlns="http://www.w3.org/2000/svg" viewBox="0 0 50 50"><path d="M47.1 23.5H45v-9.9c0-2.4-1.9-4.3-4.3-4.3h-2.9l-3-5.3c-.5-.8-1.3-1.3-2.3-1.3-.4 0-.9.1-1.3.3L19.9 9.3H7.2c-2.4 0-4.3 1.9-4.3 4.3v29.5c0 2.4 1.9 4.3 4.3 4.3h33.5c2.4 0 4.3-1.9 4.3-4.3v-8.7h2.1V23.5zM40.7 11c1.3 0 2.4 1 2.5 2.3H40L38.7 11h2zm-8.5-6.5c.4-.2.9-.1 1.2.3l4.7 8.5H16.2l16-8.8zm11.1 38.6c0 1.4-1.2 2.6-2.6 2.6H7.2c-1.4 0-2.6-1.2-2.6-2.6V13.6c0-1.4 1.2-2.6 2.6-2.6h9.7l-4.1 2.3h-5c-.5 0-.9.4-.9.9s.4.9.9.9h35.6v8.4H37c-2.9 0-5.3 2.4-5.3 5.3v.4c0 2.9 2.4 5.3 5.3 5.3h6.3v8.6zm2.1-10.4H37c-2 0-3.6-1.6-3.6-3.6v-.4c0-2 1.6-3.6 3.6-3.6h8.4v7.6zM39.6 29c0 1-.8 1.9-1.9 1.9-1 0-1.9-.8-1.9-1.9 0-1 .8-1.9 1.9-1.9 1.1 0 1.9.9 1.9 1.9zm0 0" fill="#fff"/></svg>