<svg xmlns="http://www.w3.org/2000/svg" viewBox="0 0 50 50"><path d="M.8 5.8v38.5h48.3V5.8H.8zm46.6 1.7v18.1l-6.2-3.9c.2-.5.3-1 .3-1.5 0-2.4-2-4.4-4.4-4.4-2.4 0-4.4 2-4.4 4.4 0 .9.3 1.7.7 2.4l-6.1 6c-.7-.6-1.6-.9-2.6-.9-.6 0-1.2.1-1.7.4l-6.1-7.8c.4-.7.7-1.5.7-2.4 0-2.4-2-4.4-4.4-4.4-2.4 0-4.4 2-4.4 4.4 0 .6.1 1.3.4 1.8l-6.6 6.7V7.5h44.8zm-13 12.6c0-1.5 1.2-2.7 2.7-2.7 1.5 0 2.7 1.2 2.7 2.7 0 1.5-1.2 2.7-2.7 2.7-1.5 0-2.7-1.2-2.7-2.7zm-9.7 9.2c1.5 0 2.7 1.2 2.7 2.7s-1.2 2.7-2.7 2.7S22 33.5 22 32s1.2-2.7 2.7-2.7zM10.6 17.8c0-1.5 1.2-2.7 2.7-2.7 1.5 0 2.7 1.2 2.7 2.7s-1.2 2.7-2.7 2.7c-1.5-.1-2.7-1.3-2.7-2.7zm31.2 24.7V40H40v2.5h-6.2V40H32v2.5h-6.2V40H24v2.5h-6.2V40H16v2.5h-6V40H8.2v2.5H2.6V28.8l7.7-7.8c.8.7 1.8 1.2 3 1.2.9 0 1.8-.3 2.5-.8l5.8 7.6c-.8.8-1.2 1.9-1.2 3 0 2.4 2 4.4 4.4 4.4s4.4-2 4.4-4.4c0-.8-.2-1.5-.6-2.2l6.1-6c.7.5 1.5.7 2.4.7 1.3 0 2.4-.5 3.2-1.4l7.1 4.5v14.8h-5.6z" fill="#fff"/></svg>